<?xml version="1.0" encoding="UTF-8" standalone="no"?>
<!-- Created with Inkscape (http://www.inkscape.org/) -->

<svg
   width="200"
   height="200"
   viewBox="0 0 52.916664 52.916666"
   version="1.1"
   id="svg5"
   sodipodi:docname="favicon_max.svg"
   inkscape:version="1.2.2 (732a01da63, 2022-12-09)"
   xmlns:inkscape="http://www.inkscape.org/namespaces/inkscape"
   xmlns:sodipodi="http://sodipodi.sourceforge.net/DTD/sodipodi-0.dtd"
   xmlns="http://www.w3.org/2000/svg"
   xmlns:svg="http://www.w3.org/2000/svg">
  <sodipodi:namedview
     id="namedview1791"
     pagecolor="#ffffff"
     bordercolor="#000000"
     borderopacity="0.25"
     inkscape:showpageshadow="2"
     inkscape:pageopacity="0.0"
     inkscape:pagecheckerboard="0"
     inkscape:deskcolor="#d1d1d1"
     showgrid="true"
     inkscape:zoom="2.8531759"
     inkscape:cx="99.012474"
     inkscape:cy="113.38243"
     inkscape:window-width="1920"
     inkscape:window-height="1010"
     inkscape:window-x="-6"
     inkscape:window-y="-6"
     inkscape:window-maximized="1"
     inkscape:current-layer="svg5">
    <inkscape:grid
       type="xygrid"
       id="grid3040" />
  </sodipodi:namedview>
  <defs
     id="defs2" />
  <g
     id="layer1"
     transform="matrix(1.1764704,0,0,1.1764704,-4.6691097,-4.6691108)">
    <path
       style="fill:#c2c2c2;fill-opacity:1;fill-rule:nonzero;stroke:none;stroke-width:0.281562;stroke-dasharray:none"
       d="m 26.458325,26.458335 22.489585,10e-7 V 15.213545 c 0,-7.0279937 0,-8.4335925 -1.405599,-9.8391914 C 46.136713,3.9687549 44.731114,3.9687548 37.70312,3.9687548 H 26.458329 Z"
       id="path1166" />
    <path
       style="fill:#c2c2c2;fill-opacity:1;fill-rule:nonzero;stroke:none;stroke-width:0.281562;stroke-dasharray:none"
       d="m 26.458333,26.458338 -22.4895842,-1e-6 v 11.24479 c 0,7.027994 0,8.433593 1.4055992,9.839191 1.4055981,1.405598 2.8111972,1.405599 9.83919,1.405599 H 26.45833 Z"
       id="path1166-5" />
    <path
       style="fill:#3b3b3b;fill-opacity:1;fill-rule:nonzero;stroke:none;stroke-width:0.281562;stroke-dasharray:none"
       d="m 26.458329,26.458332 -22.489585,1e-6 v -11.24479 c 0,-7.027993 0,-8.4335922 1.4055992,-9.8391903 C 6.7799413,3.9687546 8.1855405,3.9687535 15.213534,3.9687535 h 11.244791 z"
       id="path1166-5-2" />
    <path
       style="fill:#3b3b3b;fill-opacity:1;fill-rule:nonzero;stroke:none;stroke-width:0.281562;stroke-dasharray:none"
       d="m 26.458329,26.458338 22.489585,-1e-6 v 11.24479 c 0,7.027994 0,8.433593 -1.405599,9.839191 -1.405598,1.405598 -2.811197,1.405599 -9.839192,1.405599 H 26.458332 Z"
       id="path1166-5-2-7" />
  </g>
</svg>
