<svg version="1.1" viewBox="0.0 0.0 256.0 256.0" fill="none" stroke="none" stroke-linecap="square" stroke-miterlimit="10" xmlns:xlink="http://www.w3.org/1999/xlink" xmlns="http://www.w3.org/2000/svg"><clipPath id="p.0"><path d="m0 0l256.0 0l0 256.0l-256.0 0l0 -256.0z" clip-rule="nonzero"/></clipPath><g clip-path="url(#p.0)"><path fill="#000000" fill-opacity="0.0" d="m0 0l256.0 0l0 256.0l-256.0 0z" fill-rule="evenodd"/><path fill="#282828" d="m8.346457 38.197624l0 0c0 -16.486345 13.364822 -29.851168 29.851168 -29.851168l179.60477 0c7.9170227 0 15.509781 3.1450243 21.107956 8.743204c5.598175 5.598179 8.74321 13.190941 8.74321 21.107964l0 179.60477c0 16.486343 -13.364822 29.851166 -29.851166 29.851166l-179.60477 0l0 0c-16.486345 0 -29.851168 -13.364822 -29.851168 -29.851166z" fill-rule="evenodd"/><path fill="#f3f3f3" d="m128.0 29.606298l81.35289 0l0 0c4.5195007 0 8.853897 1.7953663 12.049667 4.9911366c3.1957855 3.1957703 4.99115 7.5301666 4.99115 12.049667l0 81.3529l-98.39371 0z" fill-rule="evenodd"/><path fill="#f3f3f3" d="m128.0 226.23622l-82.06359 0l0 0c-4.2892494 0 -8.402821 -1.7039032 -11.435776 -4.736847c-3.032957 -3.032959 -4.7368546 -7.14653 -4.7368546 -11.435776l0 -82.0636l98.23622 0z" fill-rule="evenodd"/></g></svg>