<?xml version="1.0" encoding="utf-8"?>
<!-- Material Design icons licensed under Pictogrammers Free License - https://pictogrammers.com/docs/general/license/ -->
<!-- https://github.com/Templarian/MaterialDesign/tree/master -->
<svg width="0" height="0" class="hidden">
  <defs>
    <symbol xmlns="http://www.w3.org/2000/svg" viewBox="0 0 24 24" id="table-furniture">
      <path style="fill: currentColor" d="M2 7H22V10H20L21 19H18.5L17.94 14H6.06L5.5 19H3L4 10H2V7M17.5 10H6.5L6.29 12H17.71L17.5 10Z" />
    </symbol>
    <symbol xmlns="http://www.w3.org/2000/svg" viewBox="0 0 24 24" id="keyboard-return">
      <path style="fill: currentColor" d="M19,7V11H5.83L9.41,7.41L8,6L2,12L8,18L9.41,16.58L5.83,13H21V7H19Z" />
    </symbol>
    <symbol xmlns="http://www.w3.org/2000/svg" viewBox="0 0 24 24" id="crown-outline">
      <path style="fill: currentColor" d="M12 8L15 13.2L18 10.5L17.3 14H6.7L6 10.5L9 13.2L12 8M12 4L8.5 10L3 5L5 16H19L21 5L15.5 10L12 4M19 18H5V19C5 19.6 5.4 20 6 20H18C18.6 20 19 19.6 19 19V18Z" />
    </symbol>
    <symbol xmlns="http://www.w3.org/2000/svg" viewBox="0 0 24 24" id="dock-top">
      <path style="fill: currentColor" d="M4 20H20C21.11 20 22 19.11 22 18V6C22 4.89 21.11 4 20 4H4C2.9 4 2 4.89 2 6V18C2 19.11 2.9 20 4 20M4 11H20V18H4V11Z" />
    </symbol>
    <symbol xmlns="http://www.w3.org/2000/svg" viewBox="0 0 24 24" id="plus-lock">
      <path style="fill: currentColor" d="M21.14 17.67V17.22C21.14 16 20.2 15 19 15S16.86 16 16.86 17.22V17.67C16.34 17.67 16 18 16 18.56V22.11C16 22.65 16.34 23 16.86 23H21.14C21.66 23 22 22.65 22 22.11V18.55C22 18 21.66 17.67 21.14 17.67M20.29 17.67H17.72V17.22C17.72 16.5 18.31 15.89 19 15.89C19.69 15.89 20.29 16.5 20.29 17.22V17.67M11 5V11H5V13H11V19H13V13H19V11H13V5H11Z" />
    </symbol>
    <symbol xmlns="http://www.w3.org/2000/svg" viewBox="0 0 24 24" id="arrow-right">
      <path style="fill: currentColor" d="M4,11V13H16L10.5,18.5L11.92,19.92L19.84,12L11.92,4.08L10.5,5.5L16,11H4Z" />
    </symbol>
    <symbol xmlns="http://www.w3.org/2000/svg" viewBox="0 0 24 24" id="arrow-left">
      <path style="fill: currentColor" d="M20,11V13H8L13.5,18.5L12.08,19.92L4.16,12L12.08,4.08L13.5,5.5L8,11H20Z" />
    </symbol>
    <symbol xmlns="http://www.w3.org/2000/svg" viewBox="0 0 24 24" id="rhombus-outline">
      <path style="fill: currentColor" d="M12 2C11.5 2 11 2.19 10.59 2.59L2.59 10.59C1.8 11.37 1.8 12.63 2.59 13.41L10.59 21.41C11.37 22.2 12.63 22.2 13.41 21.41L21.41 13.41C22.2 12.63 22.2 11.37 21.41 10.59L13.41 2.59C13 2.19 12.5 2 12 2M12 4L20 12L12 20L4 12Z" />
    </symbol>
    <symbol xmlns="http://www.w3.org/2000/svg" viewBox="0 0 24 24" id="flag-checkered">
      <path style="fill: currentColor" d="M14.4,6H20V16H13L12.6,14H7V21H5V4H14L14.4,6M14,14H16V12H18V10H16V8H14V10L13,8V6H11V8H9V6H7V8H9V10H7V12H9V10H11V12H13V10L14,12V14M11,10V8H13V10H11M14,10H16V12H14V10Z" />
    </symbol>
    <symbol xmlns="http://www.w3.org/2000/svg" viewBox="0 0 24 24" id="circle-outline">
      <path style="fill: currentColor" d="M12,20A8,8 0 0,1 4,12A8,8 0 0,1 12,4A8,8 0 0,1 20,12A8,8 0 0,1 12,20M12,2A10,10 0 0,0 2,12A10,10 0 0,0 12,22A10,10 0 0,0 22,12A10,10 0 0,0 12,2Z" />
    </symbol>
    <symbol xmlns="http://www.w3.org/2000/svg" viewBox="0 0 24 24" id="numeric-1-box-outline">
      <path style="fill: currentColor" d="M19,19H5V5H19M19,3H5A2,2 0 0,0 3,5V19A2,2 0 0,0 5,21H19A2,2 0 0,0 21,19V5A2,2 0 0,0 19,3M12,17H14V7H10V9H12" />
    </symbol>
    <symbol xmlns="http://www.w3.org/2000/svg" viewBox="0 0 24 24" id="alert-box-outline">
      <path style="fill: currentColor" d="M19,19H5V5H19M19,3H5A2,2 0 0,0 3,5V19A2,2 0 0,0 5,21H19A2,2 0 0,0 21,19V5C21,3.89 20.1,3 19,3M11,15H13V17H11V15M11,7H13V13H11V7" />
    </symbol>
    <symbol xmlns="http://www.w3.org/2000/svg" viewBox="0 0 24 24" id="cancel">
      <path style="fill: currentColor" d="M12 2C17.5 2 22 6.5 22 12S17.5 22 12 22 2 17.5 2 12 6.5 2 12 2M12 4C10.1 4 8.4 4.6 7.1 5.7L18.3 16.9C19.3 15.5 20 13.8 20 12C20 7.6 16.4 4 12 4M16.9 18.3L5.7 7.1C4.6 8.4 4 10.1 4 12C4 16.4 7.6 20 12 20C13.9 20 15.6 19.4 16.9 18.3Z" />
    </symbol>
    <symbol xmlns="http://www.w3.org/2000/svg" viewBox="0 0 24 24" id="restart">
      <path style="fill: currentColor" d="M12,4C14.1,4 16.1,4.8 17.6,6.3C20.7,9.4 20.7,14.5 17.6,17.6C15.8,19.5 13.3,20.2 10.9,19.9L11.4,17.9C13.1,18.1 14.9,17.5 16.2,16.2C18.5,13.9 18.5,10.1 16.2,7.7C15.1,6.6 13.5,6 12,6V10.6L7,5.6L12,0.6V4M6.3,17.6C3.7,15 3.3,11 5.1,7.9L6.6,9.4C5.5,11.6 5.9,14.4 7.8,16.2C8.3,16.7 8.9,17.1 9.6,17.4L9,19.4C8,19 7.1,18.4 6.3,17.6Z" />
    </symbol>
    <symbol xmlns="http://www.w3.org/2000/svg" viewBox="0 0 24 24" id="surround-sound">
      <path style="fill: currentColor" d="M20,4H4A2,2 0 0,0 2,6V18A2,2 0 0,0 4,20H20A2,2 0 0,0 22,18V6A2,2 0 0,0 20,4M7.76,16.24L6.35,17.65C4.78,16.1 4,14.05 4,12C4,9.95 4.78,7.9 6.34,6.34L7.75,7.75C6.59,8.93 6,10.46 6,12C6,13.54 6.59,15.07 7.76,16.24M12,16A4,4 0 0,1 8,12A4,4 0 0,1 12,8A4,4 0 0,1 16,12A4,4 0 0,1 12,16M17.66,17.66L16.25,16.25C17.41,15.07 18,13.54 18,12C18,10.46 17.41,8.93 16.24,7.76L17.65,6.35C19.22,7.9 20,9.95 20,12C20,14.05 19.22,16.1 17.66,17.66M12,10A2,2 0 0,0 10,12A2,2 0 0,0 12,14A2,2 0 0,0 14,12A2,2 0 0,0 12,10Z" />
    </symbol>
    <symbol xmlns="http://www.w3.org/2000/svg" viewBox="0 0 24 24" id="rhombus">
      <path style="fill: currentColor" d="M12 2C11.5 2 11 2.19 10.59 2.59L2.59 10.59C1.8 11.37 1.8 12.63 2.59 13.41L10.59 21.41C11.37 22.2 12.63 22.2 13.41 21.41L21.41 13.41C22.2 12.63 22.2 11.37 21.41 10.59L13.41 2.59C13 2.19 12.5 2 12 2Z" />
    </symbol>
    <symbol xmlns="http://www.w3.org/2000/svg" viewBox="0 0 24 24" id="check-all">
      <path style="fill: currentColor" d="M0.41,13.41L6,19L7.41,17.58L1.83,12M22.24,5.58L11.66,16.17L7.5,12L6.07,13.41L11.66,19L23.66,7M18,7L16.59,5.58L10.24,11.93L11.66,13.34L18,7Z" />
    </symbol>
    <symbol xmlns="http://www.w3.org/2000/svg" viewBox="0 0 24 24" id="timer-alert-outline">
      <path style="fill: currentColor" d="M9 8H11V14H9V8M13 1H7V3H13V1M17.03 7.39C18.26 8.93 19 10.88 19 13C19 17.97 15 22 10 22C5.03 22 1 17.97 1 13S5.03 4 10 4C12.12 4 14.07 4.74 15.62 6L17.04 4.56C17.55 5 18 5.46 18.45 5.97L17.03 7.39M17 13C17 9.13 13.87 6 10 6S3 9.13 3 13 6.13 20 10 20 17 16.87 17 13M21 7V13H23V7H21M21 17H23V15H21V17Z" />
    </symbol>
    <symbol xmlns="http://www.w3.org/2000/svg" viewBox="0 0 24 24" id="clock-outline">
      <path style="fill: currentColor" d="M12,20A8,8 0 0,0 20,12A8,8 0 0,0 12,4A8,8 0 0,0 4,12A8,8 0 0,0 12,20M12,2A10,10 0 0,1 22,12A10,10 0 0,1 12,22C6.47,22 2,17.5 2,12A10,10 0 0,1 12,2M12.5,7V12.25L17,14.92L16.25,16.15L11,13V7H12.5Z" />
    </symbol>
    <symbol xmlns="http://www.w3.org/2000/svg" viewBox="0 0 24 24" id="screen-rotation">
      <g>
        <rect fill="none" height="24" width="24"/>
      </g>
      <g>
        <path style="fill: currentColor" d="M4,7.59l5-5c0.78-0.78,2.05-0.78,2.83,0L20.24,11h-2.83L10.4,4L5.41,9H8v2H2V5h2V7.59z M20,19h2v-6h-6v2h2.59l-4.99,5 l-7.01-7H3.76l8.41,8.41c0.78,0.78,2.05,0.78,2.83,0l5-5V19z"/>
      </g>
    </symbol>
    <symbol xmlns="http://www.w3.org/2000/svg" viewBox="0 0 24 24" id="checkerboard-plus">
      <path style="fill: currentColor" d="M19 17H22V19H19V22H17V19H14V17H17V14H19V17M8 16H12V12H8V16M12 12H16V8H12V12M2 2V22H13.54C13 21.42 12.63 20.74 12.36 20H8V16H4V12H8V8H4V4H8V8H12V4H16V8H20V12.36C20.74 12.63 21.42 13 22 13.54V2H2Z" />
    </symbol>
    <symbol xmlns="http://www.w3.org/2000/svg" viewBox="0 0 24 24" id="timer-outline">
      <path style="fill: currentColor" d="M12,20A7,7 0 0,1 5,13A7,7 0 0,1 12,6A7,7 0 0,1 19,13A7,7 0 0,1 12,20M19.03,7.39L20.45,5.97C20,5.46 19.55,5 19.04,4.56L17.62,6C16.07,4.74 14.12,4 12,4A9,9 0 0,0 3,13A9,9 0 0,0 12,22C17,22 21,17.97 21,13C21,10.88 20.26,8.93 19.03,7.39M11,14H13V8H11M15,1H9V3H15V1Z" />
    </symbol>
    <symbol xmlns="http://www.w3.org/2000/svg" viewBox="0 0 24 24" id="information-outline">
      <path style="fill: currentColor" d="M11,9H13V7H11M12,20C7.59,20 4,16.41 4,12C4,7.59 7.59,4 12,4C16.41,4 20,7.59 20,12C20,16.41 16.41,20 12,20M12,2A10,10 0 0,0 2,12A10,10 0 0,0 12,22A10,10 0 0,0 22,12A10,10 0 0,0 12,2M11,17H13V11H11V17Z" />
    </symbol>
    <symbol xmlns="http://www.w3.org/2000/svg" viewBox="0 0 24 24" id="cog-outline">
      <path style="fill: currentColor" d="M12,8A4,4 0 0,1 16,12A4,4 0 0,1 12,16A4,4 0 0,1 8,12A4,4 0 0,1 12,8M12,10A2,2 0 0,0 10,12A2,2 0 0,0 12,14A2,2 0 0,0 14,12A2,2 0 0,0 12,10M10,22C9.75,22 9.54,21.82 9.5,21.58L9.13,18.93C8.5,18.68 7.96,18.34 7.44,17.94L4.95,18.95C4.73,19.03 4.46,18.95 4.34,18.73L2.34,15.27C2.21,15.05 2.27,14.78 2.46,14.63L4.57,12.97L4.5,12L4.57,11L2.46,9.37C2.27,9.22 2.21,8.95 2.34,8.73L4.34,5.27C4.46,5.05 4.73,4.96 4.95,5.05L7.44,6.05C7.96,5.66 8.5,5.32 9.13,5.07L9.5,2.42C9.54,2.18 9.75,2 10,2H14C14.25,2 14.46,2.18 14.5,2.42L14.87,5.07C15.5,5.32 16.04,5.66 16.56,6.05L19.05,5.05C19.27,4.96 19.54,5.05 19.66,5.27L21.66,8.73C21.79,8.95 21.73,9.22 21.54,9.37L19.43,11L19.5,12L19.43,13L21.54,14.63C21.73,14.78 21.79,15.05 21.66,15.27L19.66,18.73C19.54,18.95 19.27,19.04 19.05,18.95L16.56,17.95C16.04,18.34 15.5,18.68 14.87,18.93L14.5,21.58C14.46,21.82 14.25,22 14,22H10M11.25,4L10.88,6.61C9.68,6.86 8.62,7.5 7.85,8.39L5.44,7.35L4.69,8.65L6.8,10.2C6.4,11.37 6.4,12.64 6.8,13.8L4.68,15.36L5.43,16.66L7.86,15.62C8.63,16.5 9.68,17.14 10.87,17.38L11.24,20H12.76L13.13,17.39C14.32,17.14 15.37,16.5 16.14,15.62L18.57,16.66L19.32,15.36L17.2,13.81C17.6,12.64 17.6,11.37 17.2,10.2L19.31,8.65L18.56,7.35L16.15,8.39C15.38,7.5 14.32,6.86 13.12,6.62L12.75,4H11.25Z" />
    </symbol>
    <symbol xmlns="http://www.w3.org/2000/svg" viewBox="0 0 24 24" id="plus">
      <path style="fill: currentColor" d="M19,13H13V19H11V13H5V11H11V5H13V11H19V13Z" />
    </symbol>
    <symbol style="fill: currentColor"
      xmlns="http://www.w3.org/2000/svg" viewBox="0 0 24 24" id="pause">
      <path d="M14,19H18V5H14M6,19H10V5H6V19Z" />
    </symbol>
    <symbol xmlns="http://www.w3.org/2000/svg" viewBox="0 0 24 24" id="timer-outline">
      <path style="fill: currentColor" d="M12,20A7,7 0 0,1 5,13A7,7 0 0,1 12,6A7,7 0 0,1 19,13A7,7 0 0,1 12,20M19.03,7.39L20.45,5.97C20,5.46 19.55,5 19.04,4.56L17.62,6C16.07,4.74 14.12,4 12,4A9,9 0 0,0 3,13A9,9 0 0,0 12,22C17,22 21,17.97 21,13C21,10.88 20.26,8.93 19.03,7.39M11,14H13V8H11M15,1H9V3H15V1Z" />
    </symbol>
    <symbol xmlns="http://www.w3.org/2000/svg" viewBox="0 0 24 24" id="flag">
      <path style="fill: currentColor" d="M14.4,6L14,4H5V21H7V14H12.6L13,16H20V6H14.4Z" />
    </symbol>
    <symbol xmlns="http://www.w3.org/2000/svg" viewBox="0 0 24 24" id="alert-circle-outline">
      <path style="fill: currentColor" d="M11,15H13V17H11V15M11,7H13V13H11V7M12,2C6.47,2 2,6.5 2,12A10,10 0 0,0 12,22A10,10 0 0,0 22,12A10,10 0 0,0 12,2M12,20A8,8 0 0,1 4,12A8,8 0 0,1 12,4A8,8 0 0,1 20,12A8,8 0 0,1 12,20Z" />
    </symbol>
    <symbol xmlns="http://www.w3.org/2000/svg" viewBox="0 0 24 24" id="rename-outline">
      <path style="fill: currentColor" d="M15 16L11 20H21V16H15M12.06 7.19L3 16.25V20H6.75L15.81 10.94L12.06 7.19M5.92 18H5V17.08L12.06 10L13 10.94L5.92 18M18.71 8.04C19.1 7.65 19.1 7 18.71 6.63L16.37 4.29C16.17 4.09 15.92 4 15.66 4C15.41 4 15.15 4.1 14.96 4.29L13.13 6.12L16.88 9.87L18.71 8.04Z" />
    </symbol>
    <symbol xmlns="http://www.w3.org/2000/svg" viewBox="0 0 24 24" id="tune">
      <path style="fill: currentColor" d="M3,17V19H9V17H3M3,5V7H13V5H3M13,21V19H21V17H13V15H11V21H13M7,9V11H3V13H7V15H9V9H7M21,13V11H11V13H21M15,9H17V7H21V5H17V3H15V9Z" />
    </symbol>
    <symbol xmlns="http://www.w3.org/2000/svg" viewBox="0 0 24 24" id="open-in-new">
      <path style="fill: currentColor" d="M14,3V5H17.59L7.76,14.83L9.17,16.24L19,6.41V10H21V3M19,19H5V5H12V3H5C3.89,3 3,3.9 3,5V19A2,2 0 0,0 5,21H19A2,2 0 0,0 21,19V12H19V19Z" />
    </symbol>
    <symbol xmlns="http://www.w3.org/2000/svg" viewBox="0 0 24 24" id="content-save-all-outline">
      <path style="fill: currentColor" d="M1 7H3V21H17V23H3C1.9 23 1 22.11 1 21V7M19 1H7C5.89 1 5 1.9 5 3V17C5 18.1 5.89 19 7 19H21C22.1 19 23 18.1 23 17V5L19 1M21 17H7V3H18.17L21 5.83V17M14 10C12.34 10 11 11.34 11 13S12.34 16 14 16 17 14.66 17 13 15.66 10 14 10M8 4H17V8H8V4Z" />
    </symbol>
    <symbol xmlns="http://www.w3.org/2000/svg" viewBox="0 0 24 24" id="content-save-outline">
      <path style="fill: currentColor" d="M17 3H5C3.89 3 3 3.9 3 5V19C3 20.1 3.89 21 5 21H19C20.1 21 21 20.1 21 19V7L17 3M19 19H5V5H16.17L19 7.83V19M12 12C10.34 12 9 13.34 9 15S10.34 18 12 18 15 16.66 15 15 13.66 12 12 12M6 6H15V10H6V6Z" />
    </symbol>
    <symbol xmlns="http://www.w3.org/2000/svg" viewBox="0 0 24 24" id="rule">
      <g>
        <rect style="fill: currentColor"/>
        <path style="fill: currentColor" d="M16.54,11L13,7.46l1.41-1.41l2.12,2.12l4.24-4.24l1.41,1.41L16.54,11z M11,7H2v2h9V7z M21,13.41L19.59,12L17,14.59 L14.41,12L13,13.41L15.59,16L13,18.59L14.41,20L17,17.41L19.59,20L21,18.59L18.41,16L21,13.41z M11,15H2v2h9V15z"/>
      </g>
    </symbol>
    <symbol xmlns="http://www.w3.org/2000/svg" viewBox="0 0 24 24" id="lan-connect">
      <path style="fill: currentColor" d="M4,1C2.89,1 2,1.89 2,3V7C2,8.11 2.89,9 4,9H1V11H13V9H10C11.11,9 12,8.11 12,7V3C12,1.89 11.11,1 10,1H4M4,3H10V7H4V3M3,13V18L3,20H10V18H5V13H3M14,13C12.89,13 12,13.89 12,15V19C12,20.11 12.89,21 14,21H11V23H23V21H20C21.11,21 22,20.11 22,19V15C22,13.89 21.11,13 20,13H14M14,15H20V19H14V15Z" />
    </symbol>
    <symbol xmlns="http://www.w3.org/2000/svg" viewBox="0 0 24 24" id="memory">
      <path style="fill: currentColor" d="M17,17H7V7H17M21,11V9H19V7C19,5.89 18.1,5 17,5H15V3H13V5H11V3H9V5H7C5.89,5 5,5.89 5,7V9H3V11H5V13H3V15H5V17A2,2 0 0,0 7,19H9V21H11V19H13V21H15V19H17A2,2 0 0,0 19,17V15H21V13H19V11M13,13H11V11H13M15,9H9V15H15V9Z" />
    </symbol>
    <symbol xmlns="http://www.w3.org/2000/svg" viewBox="0 0 24 24" id="target-account">
      <path style="fill: currentColor" d="M20.95,11H22.5V13H20.95C20.5,17.17 17.17,20.5 13,20.95V22.5H11V20.95C6.83,20.5 3.5,17.17 3.05,13H1.5V11H3.05C3.5,6.83 6.83,3.5 11,3.05V1.5H13V3.05C17.17,3.5 20.5,6.83 20.95,11M5.07,11H6.5V13H5.07C5.5,16.07 7.93,18.5 11,18.93V17.5H13V18.93C16.07,18.5 18.5,16.07 18.93,13H17.5V11H18.93C18.5,7.93 16.07,5.5 13,5.07V6.5H11V5.07C7.93,5.5 5.5,7.93 5.07,11M16,16H8V15C8,13.67 10.67,13 12,13C13.33,13 16,13.67 16,15V16M12,8A2,2 0 0,1 14,10A2,2 0 0,1 12,12A2,2 0 0,1 10,10A2,2 0 0,1 12,8Z" />
    </symbol>
    <symbol xmlns="http://www.w3.org/2000/svg" viewBox="0 0 24 24" id="account">
      <path style="fill: currentColor" d="M12,4A4,4 0 0,1 16,8A4,4 0 0,1 12,12A4,4 0 0,1 8,8A4,4 0 0,1 12,4M12,14C16.42,14 20,15.79 20,18V20H4V18C4,15.79 7.58,14 12,14Z" />
    </symbol>
    <symbol xmlns="http://www.w3.org/2000/svg" viewBox="0 0 24 24" id="palette-advanced">
      <path style="fill: currentColor" d="M22,22H10V20H22V22M2,22V20H9V22H2M18,18V10H22V18H18M18,3H22V9H18V3M2,18V3H16V18H2M9,14.56A3,3 0 0,0 12,11.56C12,9.56 9,6.19 9,6.19C9,6.19 6,9.56 6,11.56A3,3 0 0,0 9,14.56Z" />
    </symbol>
    <symbol xmlns="http://www.w3.org/2000/svg" viewBox="0 0 24 24" id="chevron-up">
      <path style="fill: currentColor" d="M7.41,15.41L12,10.83L16.59,15.41L18,14L12,8L6,14L7.41,15.41Z" />
    </symbol>
    <symbol xmlns="http://www.w3.org/2000/svg" viewBox="0 0 24 24" id="flash-outline">
      <path style="fill: currentColor" d="M7,2H17L13.5,9H17L10,22V14H7V2M9,4V12H12V14.66L14,11H10.24L13.76,4H9Z" />
    </symbol>
    <symbol xmlns="http://www.w3.org/2000/svg" viewBox="0 0 24 24" id="warning">
      <path d="M0 0h24v24H0V0z" fill="none" />
      <path style="fill: currentColor" d="M12 5.99L19.53 19H4.47L12 5.99M12 2L1 21h22L12 2zm1 14h-2v2h2v-2zm0-6h-2v4h2v-4z" />
    </symbol>
    <symbol xmlns="http://www.w3.org/2000/svg" viewBox="0 0 24 24" id="chess-pawn">
      <path style="fill: currentColor" d="M19 22H5V20H19V22M16 18H8L10.18 10H8V8H10.72L10.79 7.74C10.1 7.44 9.55 6.89 9.25 6.2C8.58 4.68 9.27 2.91 10.79 2.25C12.31 1.58 14.08 2.27 14.74 3.79C15.41 5.31 14.72 7.07 13.2 7.74L13.27 8H16V10H13.82L16 18Z" />
    </symbol>
    <symbol xmlns="http://www.w3.org/2000/svg" viewBox="0 0 24 24" id="border-piece">
      <path style="fill: transparent; stroke: currentColor; stroke-width: 1.5px" d="M19 22H5V20H19V22M16 18H8L10.18 10H8V8H10.72L10.79 7.74C10.1 7.44 9.55 6.89 9.25 6.2C8.58 4.68 9.27 2.91 10.79 2.25C12.31 1.58 14.08 2.27 14.74 3.79C15.41 5.31 14.72 7.07 13.2 7.74L13.27 8H16V10H13.82L16 18Z" />
    </symbol>
    <symbol viewBox="0 0 24 24" id="padding-piece"
      xmlns="http://www.w3.org/2000/svg"
      xmlns:svg="http://www.w3.org/2000/svg">
      <path style="fill: currentColor" d="M15,5H17V3H15M15,21H17V19H15M11,5H13V3H11M19,5H21V3H19M19,9H21V7H19M19,21H21V19H19M19,13H21V11H19M19,17H21V15H19M3,5H5V3H3M3,9H5V7H3M3,13H5V11H3M3,17H5V15H3M3,21H5V19H3M11,21H13V19H11M7,21H9V19H7M7,5H9V3H7V5Z" id="path2" />
      <path d="M 15.848825,17.5 H 8.1511752 V 16.400336 H 15.848825 V 17.5 M 14.199329,15.300672 H 9.8006714 L 10.999306,10.902016 H 9.8006714 V 9.8023511 h 1.4955436 l 0.03849,-0.1429564 C 10.95532,9.4944451 10.652911,9.1920374 10.487962,8.8126535 c -0.368388,-0.8357448 0.011,-1.8089476 0.846742,-2.1718368 0.835745,-0.3683875 1.808947,0.010997 2.171836,0.8467414 0.368388,0.8357448 -0.01099,1.8034491 -0.846742,2.1718366 l 0.03849,0.1429564 h 1.501041 v 1.0996649 h -1.198633 z" style="stroke-width:0.549832; fill: currentColor"/>
    </symbol>
    <symbol xmlns="http://www.w3.org/2000/svg" viewBox="0 0 24 24" id="cookie-alert">
      <path style="fill: currentColor" d="M18 10H16V9C16 8 15 8 15 8H13V7C13 6 12 6 12 6H11V4C11 3 10 3 10 3C5 3 1 7 1 12S5 21 10 21 19 17 19 12C19 11.5 19 11 18.9 10.5C18.6 10 18 10 18 10M4.5 13C3.7 13 3 12.3 3 11.5S3.7 10 4.5 10 6 10.7 6 11.5 5.3 13 4.5 13M6 7.5C6 6.7 6.7 6 7.5 6S9 6.7 9 7.5 8.3 9 7.5 9 6 8.3 6 7.5M9 19C8.2 19 7.5 18.3 7.5 17.5S8.2 16 9 16 10.5 16.7 10.5 17.5 9.8 19 9 19M9.5 14C8.7 14 8 13.3 8 12.5S8.7 11 9.5 11 11 11.7 11 12.5 10.3 14 9.5 14M14.5 16C13.7 16 13 15.3 13 14.5S13.7 13 14.5 13C15.3 13 16 13.7 16 14.5S15.3 16 14.5 16M21 15H23V17H21V15M23 7V13H21V7H23Z" />
    </symbol>
    <symbol xmlns="http://www.w3.org/2000/svg" viewBox="0 0 24 24" id="play-speed">
      <path style="fill: currentColor" d="M13,2.05V4.05C17.39,4.59 20.5,8.58 19.96,12.97C19.5,16.61 16.64,19.5 13,19.93V21.93C18.5,21.38 22.5,16.5 21.95,11C21.5,6.25 17.73,2.5 13,2.03V2.05M5.67,19.74C7.18,21 9.04,21.79 11,22V20C9.58,19.82 8.23,19.25 7.1,18.37L5.67,19.74M7.1,5.74C8.22,4.84 9.57,4.26 11,4.06V2.06C9.05,2.25 7.19,3 5.67,4.26L7.1,5.74M5.69,7.1L4.26,5.67C3,7.19 2.25,9.04 2.05,11H4.05C4.24,9.58 4.8,8.23 5.69,7.1M4.06,13H2.06C2.26,14.96 3.03,16.81 4.27,18.33L5.69,16.9C4.81,15.77 4.24,14.42 4.06,13M10,16.5L16,12L10,7.5V16.5Z" />
    </symbol>
    <symbol xmlns="http://www.w3.org/2000/svg" viewBox="0 0 24 24" id="close">
      <path style="fill: currentColor" d="M19,6.41L17.59,5L12,10.59L6.41,5L5,6.41L10.59,12L5,17.59L6.41,19L12,13.41L17.59,19L19,17.59L13.41,12L19,6.41Z" />
    </symbol>
    <symbol xmlns="http://www.w3.org/2000/svg" viewBox="0 0 24 24" id="circle-small">
      <path style="fill: currentColor; transform-origin: center; transform: scale(1.5);" d="M12,10A2,2 0 0,0 10,12C10,13.11 10.9,14 12,14C13.11,14 14,13.11 14,12A2,2 0 0,0 12,10Z" />
    </symbol>
    <symbol xmlns="http://www.w3.org/2000/svg" viewBox="0 0 24 24" id="database-alert">
      <path style="fill: currentColor" d="M18 7C18 9.21 14.42 11 10 11S2 9.21 2 7 5.58 3 10 3 18 4.79 18 7M10 18C5.58 18 2 16.21 2 14V17C2 19.21 5.58 21 10 21S18 19.21 18 17V14C18 16.21 14.42 18 10 18M10 13C5.58 13 2 11.21 2 9V12C2 14.21 5.58 16 10 16S18 14.21 18 12V9C18 11.21 14.42 13 10 13M20 17H22V15H20V17M20 7V13H22V7H20Z"></path>
    </symbol>
    <symbol xmlns="http://www.w3.org/2000/svg" viewBox="0 0 24 24" id="delete-forever-outline">
      <path style="fill: currentColor" d="M14.12,10.47L12,12.59L9.87,10.47L8.46,11.88L10.59,14L8.47,16.12L9.88,17.53L12,15.41L14.12,17.53L15.53,16.12L13.41,14L15.53,11.88L14.12,10.47M15.5,4L14.5,3H9.5L8.5,4H5V6H19V4H15.5M6,19A2,2 0 0,0 8,21H16A2,2 0 0,0 18,19V7H6V19M8,9H16V19H8V9Z"></path>
    </symbol>
    <symbol xmlns="http://www.w3.org/2000/svg" viewBox="0 0 24 24" id="download-circle-outline">
      <path style="fill: currentColor" d="M8 17V15H16V17H8M16 10L12 14L8 10H10.5V6H13.5V10H16M12 2C17.5 2 22 6.5 22 12C22 17.5 17.5 22 12 22C6.5 22 2 17.5 2 12C2 6.5 6.5 2 12 2M12 4C7.58 4 4 7.58 4 12C4 16.42 7.58 20 12 20C16.42 20 20 16.42 20 12C20 7.58 16.42 4 12 4Z"></path>
    </symbol>
    <symbol xmlns="http://www.w3.org/2000/svg" viewBox="0 0 24 24" id="github">
      <title>github</title>
      <path style="fill: currentColor" d="M12,2A10,10 0 0,0 2,12C2,16.42 4.87,20.17 8.84,21.5C9.34,21.58 9.5,21.27 9.5,21C9.5,20.77 9.5,20.14 9.5,19.31C6.73,19.91 6.14,17.97 6.14,17.97C5.68,16.81 5.03,16.5 5.03,16.5C4.12,15.88 5.1,15.9 5.1,15.9C6.1,15.97 6.63,16.93 6.63,16.93C7.5,18.45 8.97,18 9.54,17.76C9.63,17.11 9.89,16.67 10.17,16.42C7.95,16.17 5.62,15.31 5.62,11.5C5.62,10.39 6,9.5 6.65,8.79C6.55,8.54 6.2,7.5 6.75,6.15C6.75,6.15 7.59,5.88 9.5,7.17C10.29,6.95 11.15,6.84 12,6.84C12.85,6.84 13.71,6.95 14.5,7.17C16.41,5.88 17.25,6.15 17.25,6.15C17.8,7.5 17.45,8.54 17.35,8.79C18,9.5 18.38,10.39 18.38,11.5C18.38,15.32 16.04,16.16 13.81,16.41C14.17,16.72 14.5,17.33 14.5,18.26C14.5,19.6 14.5,20.68 14.5,21C14.5,21.27 14.66,21.59 15.17,21.5C19.14,20.16 22,16.42 22,12A10,10 0 0,0 12,2Z"></path>
    </symbol>
    <symbol xmlns="http://www.w3.org/2000/svg" viewBox="0 0 24 24" id="help-circle-outline">
      <path style="fill: currentColor" d="M11,18H13V16H11V18M12,2A10,10 0 0,0 2,12A10,10 0 0,0 12,22A10,10 0 0,0 22,12A10,10 0 0,0 12,2M12,20C7.59,20 4,16.41 4,12C4,7.59 7.59,4 12,4C16.41,4 20,7.59 20,12C20,16.41 16.41,20 12,20M12,6A4,4 0 0,0 8,10H10A2,2 0 0,1 12,8A2,2 0 0,1 14,10C14,12 11,11.75 11,15H13C13,12.75 16,12.5 16,10A4,4 0 0,0 12,6Z"></path>
    </symbol>
    <symbol xmlns="http://www.w3.org/2000/svg" viewBox="0 0 24 24" id="checkerboard">
      <path style="fill: currentColor" d="M2 2V22H22V2H2M20 12H16V16H20V20H16V16H12V20H8V16H4V12H8V8H4V4H8V8H12V4H16V8H20V12M16 8V12H12V8H16M12 12V16H8V12H12Z"></path>
    </symbol>
    <symbol xmlns="http://www.w3.org/2000/svg" viewBox="0 0 24 24" id="chevron-down">
      <path style="fill: currentColor" d="M7.41,8.58L12,13.17L16.59,8.58L18,10L12,16L6,10L7.41,8.58Z"></path>
    </symbol>
    <symbol xmlns="http://www.w3.org/2000/svg" viewBox="0 0 24 24" id="chevron-left">
      <path style="fill: currentColor" d="M15.41,16.58L10.83,12L15.41,7.41L14,6L8,12L14,18L15.41,16.58Z"></path>
    </symbol>
    <symbol xmlns="http://www.w3.org/2000/svg" viewBox="0 0 24 24" id="information-outline">
      <path style="fill: currentColor" d="M11,9H13V7H11M12,20C7.59,20 4,16.41 4,12C4,7.59 7.59,4 12,4C16.41,4 20,7.59 20,12C20,16.41 16.41,20 12,20M12,2A10,10 0 0,0 2,12A10,10 0 0,0 12,22A10,10 0 0,0 22,12A10,10 0 0,0 12,2M11,17H13V11H11V17Z"></path>
    </symbol>
    <symbol xmlns="http://www.w3.org/2000/svg" viewBox="0 0 24 24" id="invert-colors">
      <path style="fill: currentColor" d="M12,19.58V19.58C10.4,19.58 8.89,18.96 7.76,17.83C6.62,16.69 6,15.19 6,13.58C6,12 6.62,10.47 7.76,9.34L12,5.1M17.66,7.93L12,2.27V2.27L6.34,7.93C3.22,11.05 3.22,16.12 6.34,19.24C7.9,20.8 9.95,21.58 12,21.58C14.05,21.58 16.1,20.8 17.66,19.24C20.78,16.12 20.78,11.05 17.66,7.93Z"></path>
    </symbol>
    <symbol xmlns="http://www.w3.org/2000/svg" viewBox="0 0 24 24" id="play-outline">
      <path style="fill: currentColor" d="M8.5,8.64L13.77,12L8.5,15.36V8.64M6.5,5V19L17.5,12"></path>
    </symbol>
    <symbol xmlns="http://www.w3.org/2000/svg" viewBox="0 0 24 24" id="transition">
      <path style="fill: currentColor" d="M15,2A7,7 0 0,1 22,9C22,11.71 20.46,14.05 18.22,15.22C17.55,16.5 16.5,17.55 15.22,18.22C14.05,20.46 11.71,22 9,22A7,7 0 0,1 2,15C2,12.29 3.54,9.95 5.78,8.78C6.45,7.5 7.5,6.45 8.78,5.78C9.95,3.54 12.29,2 15,2M12,19A7,7 0 0,1 5,12C4.37,12.84 4,13.87 4,15A5,5 0 0,0 9,20C10.13,20 11.16,19.63 12,19M15,16A7,7 0 0,1 8,9H8C7.37,9.84 7,10.87 7,12A5,5 0 0,0 12,17C13.13,17 14.16,16.63 15,16V16M15,4C13.87,4 12.84,4.37 12,5V5A7,7 0 0,1 19,12H19C19.63,11.16 20,10.13 20,9A5,5 0 0,0 15,4M10,9A5,5 0 0,0 15,14C15.6,14 16.17,13.9 16.7,13.7C16.9,13.17 17,12.6 17,12A5,5 0 0,0 12,7C11.4,7 10.83,7.1 10.3,7.3C10.1,7.83 10,8.4 10,9Z"></path>
    </symbol>
    <symbol xmlns="http://www.w3.org/2000/svg" viewBox="0 0 24 24" id="account-multiple-outline">
      <path style="fill: currentColor" d="M13.07 10.41A5 5 0 0 0 13.07 4.59A3.39 3.39 0 0 1 15 4A3.5 3.5 0 0 1 15 11A3.39 3.39 0 0 1 13.07 10.41M5.5 7.5A3.5 3.5 0 1 1 9 11A3.5 3.5 0 0 1 5.5 7.5M7.5 7.5A1.5 1.5 0 1 0 9 6A1.5 1.5 0 0 0 7.5 7.5M16 17V19H2V17S2 13 9 13 16 17 16 17M14 17C13.86 16.22 12.67 15 9 15S4.07 16.31 4 17M15.95 13A5.32 5.32 0 0 1 18 17V19H22V17S22 13.37 15.94 13Z"></path>
    </symbol>
    <symbol xmlns="http://www.w3.org/2000/svg" viewBox="0 0 24 24" id="brightness-6">
      <path style="fill: currentColor" d="M12,18V6A6,6 0 0,1 18,12A6,6 0 0,1 12,18M20,15.31L23.31,12L20,8.69V4H15.31L12,0.69L8.69,4H4V8.69L0.69,12L4,15.31V20H8.69L12,23.31L15.31,20H20V15.31Z"></path>
    </symbol>
    <symbol xmlns="http://www.w3.org/2000/svg" viewBox="0 0 24 24" id="format-color-fill">
      <path style="fill: currentColor" d="M19,11.5C19,11.5 17,13.67 17,15A2,2 0 0,0 19,17A2,2 0 0,0 21,15C21,13.67 19,11.5 19,11.5M5.21,10L10,5.21L14.79,10M16.56,8.94L7.62,0L6.21,1.41L8.59,3.79L3.44,8.94C2.85,9.5 2.85,10.47 3.44,11.06L8.94,16.56C9.23,16.85 9.62,17 10,17C10.38,17 10.77,16.85 11.06,16.56L16.56,11.06C17.15,10.47 17.15,9.5 16.56,8.94Z" />
    </symbol>
    <symbol xmlns="http://www.w3.org/2000/svg" viewBox="0 0 24 24" id="code-array">
      <path style="fill: currentColor" d="M3,5A2,2 0 0,1 5,3H19A2,2 0 0,1 21,5V19A2,2 0 0,1 19,21H5C3.89,21 3,20.1 3,19V5M6,6V18H10V16H8V8H10V6H6M16,16H14V18H18V6H14V8H16V16Z" />
    </symbol>
    <symbol xmlns="http://www.w3.org/2000/svg" viewBox="0 0 24 24" id="check">
      <path style="fill: currentColor" d="M21,7L9,19L3.5,13.5L4.91,12.09L9,16.17L19.59,5.59L21,7Z" />
    </symbol>
    <symbol xmlns="http://www.w3.org/2000/svg" viewBox="0 0 24 24" id="check-circle-outline">
      <path style="fill: currentColor" d="M12 2C6.5 2 2 6.5 2 12S6.5 22 12 22 22 17.5 22 12 17.5 2 12 2M12 20C7.59 20 4 16.41 4 12S7.59 4 12 4 20 7.59 20 12 16.41 20 12 20M16.59 7.58L10 14.17L7.41 11.59L6 13L10 17L18 9L16.59 7.58Z" />
    </symbol>
    <symbol xmlns="http://www.w3.org/2000/svg" viewBox="0 0 24 24" id="close-circle-outline">
      <path style="fill: currentColor" d="M12,20C7.59,20 4,16.41 4,12C4,7.59 7.59,4 12,4C16.41,4 20,7.59 20,12C20,16.41 16.41,20 12,20M12,2C6.47,2 2,6.47 2,12C2,17.53 6.47,22 12,22C17.53,22 22,17.53 22,12C22,6.47 17.53,2 12,2M14.59,8L12,10.59L9.41,8L8,9.41L10.59,12L8,14.59L9.41,16L12,13.41L14.59,16L16,14.59L13.41,12L16,9.41L14.59,8Z" />
    </symbol>
  </defs>
</svg>