<?xml version="1.0" encoding="utf-8"?>
<!-- SVG Sprite -->
<svg width="0" height="0" class="hidden">
  <defs>
    <symbol viewBox="0 0 24 24" id="bishop-white"
      xmlns="http://www.w3.org/2000/svg"
      xmlns:svg="http://www.w3.org/2000/svg">
      <!-- Font Awesome Free 5.15.4 by @fontawesome - https://fontawesome.com License - https://fontawesome.com/license/free (Icons: CC BY 4.0, Fonts: SIL OFL 1.1, Code: MIT License) -->
      <path style="fill: var(--color-piece-fill-white); stroke: var(--color-piece-stroke-white); stroke-width: var(--piece-stroke-width)" d="m 6.0625233,13.245313 c 0,2.017186 0.8648401,2.883984 2.1874911,3.304686 v 1.700002 h 7.4999696 v -1.700002 c 1.322653,-0.420702 2.187493,-1.289063 2.187493,-3.304686 0,-1.195703 -0.419139,-2.621095 -1.042574,-4.0062511 l -3.918342,3.9191411 a 0.31249877,0.31249999 0 0 1 -0.441798,0 l -0.441795,-0.441797 a 0.31249877,0.31249999 0 0 1 0,-0.441796 L 16.307406,8.0585931 C 15.494908,6.5777342 14.49218,5.2421874 13.539056,4.4417969 14.085929,4.308203 14.49999,3.8378905 14.49999,3.25 A 1.2499951,1.2500001 0 0 0 13.249995,2 h -2.49999 A 1.2499951,1.2500001 0 0 0 9.5000096,3.25 c 0,0.5859374 0.4140625,1.058203 0.9609324,1.1917969 C 8.3988422,6.1718748 6.0625233,10.378907 6.0625233,13.245313 Z M 17.624978,19.5 H 6.375022 A 0.62499754,0.62499998 0 0 0 5.7500244,20.124999 V 21.375 A 0.62499754,0.62499998 0 0 0 6.375022,22 h 11.249956 a 0.62499754,0.62499998 0 0 0 0.624998,-0.625 V 20.124999 A 0.62499754,0.62499998 0 0 0 17.624978,19.5 Z" />
    </symbol>
    <symbol viewBox="0 0 24 24" id="king-white"
      xmlns="http://www.w3.org/2000/svg"
      xmlns:svg="http://www.w3.org/2000/svg">
      <!-- Font Awesome Free 5.15.4 by @fontawesome - https://fontawesome.com License - https://fontawesome.com/license/free (Icons: CC BY 4.0, Fonts: SIL OFL 1.1, Code: MIT License) -->
      <path style="fill: var(--color-piece-fill-white); stroke: var(--color-piece-stroke-white); stroke-width: var(--piece-stroke-width)" d="M 18.875,19.5 H 5.1249997 a 0.625,0.625 0 0 0 -0.6250002,0.625 v 1.25 A 0.625,0.625 0 0 0 5.1249997,22 H 18.875 A 0.625,0.625 0 0 0 19.5,21.375 v -1.25 A 0.625,0.625 0 0 0 18.875,19.5 Z M 19.5,8.2499998 H 13.25 V 6.3750017 h 1.5625 A 0.3125,0.3125 0 0 0 15.125,6.0625004 V 4.1875016 A 0.3125,0.3125 0 0 0 14.8125,3.8750004 H 13.25 V 2.3125011 A 0.3125,0.3125 0 0 0 12.9375,1.9999999 h -1.875 A 0.3125,0.3125 0 0 0 10.75,2.3125011 V 3.8750004 H 9.1874995 a 0.3125,0.3125 0 0 0 -0.3125,0.3125012 v 1.8749988 a 0.3125,0.3125 0 0 0 0.3125,0.3125013 H 10.75 V 8.2499998 H 4.4999995 A 1.25,1.25 0 0 0 3.307812,9.8726575 L 6.1624996,18.250002 H 17.8375 L 20.692188,9.8726575 A 1.25,1.25 0 0 0 19.5,8.2499998 Z" />
    </symbol>
    <symbol viewBox="0 0 24 24" id="knight-white"
      xmlns="http://www.w3.org/2000/svg"
      xmlns:svg="http://www.w3.org/2000/svg">
      <!-- Font Awesome Free 5.15.4 by @fontawesome - https://fontawesome.com License - https://fontawesome.com/license/free (Icons: CC BY 4.0, Fonts: SIL OFL 1.1, Code: MIT License) -->
      <path style="fill: var(--color-piece-fill-white); stroke: var(--color-piece-stroke-white); stroke-width: var(--piece-stroke-width)" d="m 4.7916681,12.019583 1.6929167,0.7525 a 1.3333333,1.3333333 0 0 0 1.0366666,0.01958 l 0.5325,-0.213334 A 1.3333333,1.3333333 0 0 0 8.8354181,11.724167 L 9.2195848,10.447083 A 1,1 0 0 1 9.7425014,9.795 L 10.664168,9.333333 v 2.097084 a 2,2 0 0 1 -1.1054166,1.789166 l -2.3841666,1.19375 A 3.3333333,3.3333333 0 0 0 5.3333348,17.395 V 18 H 18.660835 v -8 c 0,-4.416667 -3.58,-8 -7.996667,-8 H 4.5000014 a 0.5,0.5 0 0 0 -0.5,0.5 0.70416667,0.70416667 0 0 0 0.074583,0.315833 L 4.6666681,4 l -0.375,0.375 A 1,1 0 0 0 4.0000014,5.083333 v 5.717084 a 1.3333333,1.3333333 0 0 0 0.7916667,1.219166 z M 6.1666681,6 A 0.83333333,0.83333333 0 1 1 5.3333348,6.833333 0.83333333,0.83333333 0 0 1 6.1666681,6 Z M 19.333335,19.333333 H 4.6666681 A 0.66666667,0.66666667 0 0 0 4.0000014,20 v 1.333333 A 0.66666667,0.66666667 0 0 0 4.6666681,22 H 19.333335 a 0.66666667,0.66666667 0 0 0 0.666667,-0.666667 V 20 a 0.66666667,0.66666667 0 0 0 -0.666667,-0.666667 z" />
    </symbol>
    <symbol viewBox="0 0 24 24" id="pawn-white"
      xmlns="http://www.w3.org/2000/svg"
      xmlns:svg="http://www.w3.org/2000/svg">
      <!-- Font Awesome Free 5.15.4 by @fontawesome - https://fontawesome.com License - https://fontawesome.com/license/free (Icons: CC BY 4.0, Fonts: SIL OFL 1.1, Code: MIT License) -->
      <path style="fill: var(--color-piece-fill-white); stroke: var(--color-piece-stroke-white); stroke-width: var(--piece-stroke-width)" d="M 9.7125002,10 H 8.6666668 A 0.66666667,0.66666667 0 0 0 8.0000002,10.666667 V 12 a 0.66666667,0.66666667 0 0 0 0.6666666,0.666667 h 0.6666667 v 0.22875 c 0,1.833333 -0.1725,3.608333 -1,5.104583 h 7.3333335 c -0.82875,-1.49625 -1,-3.27125 -1,-5.104583 v -0.22875 h 0.666667 A 0.66666667,0.66666667 0 0 0 16,12 V 10.666667 A 0.66666667,0.66666667 0 0 0 15.333334,10 H 14.2875 c 1.224584,-0.7658327 2.045834,-2.1158327 2.045834,-3.6666667 a 4.3333336,4.3333336 0 0 0 -8.6666672,0 c 0,1.550834 0.82125,2.900834 2.0458334,3.6666667 z M 18,19.333333 H 6.0000002 A 0.66666667,0.66666667 0 0 0 5.3333335,20 v 1.333333 A 0.66666667,0.66666667 0 0 0 6.0000002,22 H 18 a 0.66666667,0.66666667 0 0 0 0.666666,-0.666667 V 20 A 0.66666667,0.66666667 0 0 0 18,19.333333 Z" />
    </symbol>
    <symbol viewBox="0 0 24 24" id="queen-white"
      xmlns="http://www.w3.org/2000/svg"
      xmlns:svg="http://www.w3.org/2000/svg">
      <!-- Font Awesome Free 5.15.4 by @fontawesome - https://fontawesome.com License - https://fontawesome.com/license/free (Icons: CC BY 4.0, Fonts: SIL OFL 1.1, Code: MIT License) -->
      <path style="fill: var(--color-piece-fill-white); stroke: var(--color-piece-stroke-white); stroke-width: var(--piece-stroke-width)" d="M 12,6.375 A 2.1875,2.1875 0 1 0 9.8125001,4.1875 2.1875,2.1875 0 0 0 12,6.375 Z M 18.875,19.5 H 5.1250001 a 0.625,0.625 0 0 0 -0.625,0.625 v 1.25 a 0.625,0.625 0 0 0 0.625,0.625 H 18.875 A 0.625,0.625 0 0 0 19.5,21.375 v -1.25 A 0.625,0.625 0 0 0 18.875,19.5 Z M 21.721484,9.19375 20.607812,8.571875 C 20.317187,8.3765625 19.947266,8.4757812 19.737109,8.7546875 A 1.8589844,1.8589844 0 0 1 17.892187,9.4667969 C 16.988282,9.2992188 16.375,8.4425782 16.375,7.5234375 A 0.5234375,0.5234375 0 0 0 15.851562,7 h -1.514453 c -0.234375,0 -0.453515,0.15625 -0.502343,0.3871093 a 1.875,1.875 0 0 1 -3.669531,0 C 10.116406,7.1558594 9.8988283,7 9.6628908,7 H 8.1484376 A 0.5234375,0.5234375 0 0 0 7.6250001,7.5234375 c 0,1.0035156 -0.7421875,1.9042969 -1.7449218,1.9722657 A 1.8554687,1.8554687 0 0 1 4.2574221,8.7476563 C 4.0511721,8.4707032 3.6820314,8.3785156 3.3945314,8.5703125 l -1.1160156,0.625 a 0.625,0.625 0 0 0 -0.2125,0.7996094 L 6.0718751,18.25 H 17.928125 L 21.933984,9.9933594 A 0.625,0.625 0 0 0 21.721484,9.19375 Z" />
    </symbol>
    <symbol viewBox="0 0 24 24" id="rook-white"
      xmlns="http://www.w3.org/2000/svg"
      xmlns:svg="http://www.w3.org/2000/svg">
      <!-- Font Awesome Free 5.15.4 by @fontawesome - https://fontawesome.com License - https://fontawesome.com/license/free (Icons: CC BY 4.0, Fonts: SIL OFL 1.1, Code: MIT License) -->
      <path style="fill: var(--color-piece-fill-white); stroke: var(--color-piece-stroke-white); stroke-width: var(--piece-stroke-width)" d="M 19.333333,2 H 17 a 0.66666667,0.66666667 0 0 0 -0.666667,0.666667 v 2 h -2 v -2 A 0.66666667,0.66666667 0 0 0 13.666667,2 H 10.333333 A 0.66666667,0.66666667 0 0 0 9.6666667,2.666667 v 2 H 7.6708333 v -2 A 0.66666667,0.66666667 0 0 0 7.0041667,2 h -2.3375 A 0.66666667,0.66666667 0 0 0 4,2.666667 V 10 l 2.6666667,1.333333 C 6.6666667,13.347083 6.6025,15.291667 6.11625,18 h 11.7675 C 17.3975,15.291667 17.333333,13.321667 17.333333,11.333333 L 20,10 V 2.666667 A 0.66666667,0.66666667 0 0 0 19.333333,2 Z m -6,12 h -2.666666 v -2.666667 a 1.3333333,1.3333333 0 0 1 2.666666,0 z m 6,5.333333 H 4.6666667 A 0.66666667,0.66666667 0 0 0 4,20 v 1.333333 A 0.66666667,0.66666667 0 0 0 4.6666667,22 H 19.333333 A 0.66666667,0.66666667 0 0 0 20,21.333333 V 20 a 0.66666667,0.66666667 0 0 0 -0.666667,-0.666667 z" />
    </symbol>

    <symbol viewBox="0 0 24 24" id="bishop-black"
      xmlns="http://www.w3.org/2000/svg"
      xmlns:svg="http://www.w3.org/2000/svg">
      <!-- Font Awesome Free 5.15.4 by @fontawesome - https://fontawesome.com License - https://fontawesome.com/license/free (Icons: CC BY 4.0, Fonts: SIL OFL 1.1, Code: MIT License) -->
      <path style="fill: var(--color-piece-fill-black); stroke: var(--color-piece-stroke-black); stroke-width: var(--piece-stroke-width)" d="m 6.0625233,13.245313 c 0,2.017186 0.8648401,2.883984 2.1874911,3.304686 v 1.700002 h 7.4999696 v -1.700002 c 1.322653,-0.420702 2.187493,-1.289063 2.187493,-3.304686 0,-1.195703 -0.419139,-2.621095 -1.042574,-4.0062511 l -3.918342,3.9191411 a 0.31249877,0.31249999 0 0 1 -0.441798,0 l -0.441795,-0.441797 a 0.31249877,0.31249999 0 0 1 0,-0.441796 L 16.307406,8.0585931 C 15.494908,6.5777342 14.49218,5.2421874 13.539056,4.4417969 14.085929,4.308203 14.49999,3.8378905 14.49999,3.25 A 1.2499951,1.2500001 0 0 0 13.249995,2 h -2.49999 A 1.2499951,1.2500001 0 0 0 9.5000096,3.25 c 0,0.5859374 0.4140625,1.058203 0.9609324,1.1917969 C 8.3988422,6.1718748 6.0625233,10.378907 6.0625233,13.245313 Z M 17.624978,19.5 H 6.375022 A 0.62499754,0.62499998 0 0 0 5.7500244,20.124999 V 21.375 A 0.62499754,0.62499998 0 0 0 6.375022,22 h 11.249956 a 0.62499754,0.62499998 0 0 0 0.624998,-0.625 V 20.124999 A 0.62499754,0.62499998 0 0 0 17.624978,19.5 Z" />
    </symbol>
    <symbol viewBox="0 0 24 24" id="king-black"
      xmlns="http://www.w3.org/2000/svg"
      xmlns:svg="http://www.w3.org/2000/svg">
      <!-- Font Awesome Free 5.15.4 by @fontawesome - https://fontawesome.com License - https://fontawesome.com/license/free (Icons: CC BY 4.0, Fonts: SIL OFL 1.1, Code: MIT License) -->
      <path style="fill: var(--color-piece-fill-black); stroke: var(--color-piece-stroke-black); stroke-width: var(--piece-stroke-width)" d="M 18.875,19.5 H 5.1249997 a 0.625,0.625 0 0 0 -0.6250002,0.625 v 1.25 A 0.625,0.625 0 0 0 5.1249997,22 H 18.875 A 0.625,0.625 0 0 0 19.5,21.375 v -1.25 A 0.625,0.625 0 0 0 18.875,19.5 Z M 19.5,8.2499998 H 13.25 V 6.3750017 h 1.5625 A 0.3125,0.3125 0 0 0 15.125,6.0625004 V 4.1875016 A 0.3125,0.3125 0 0 0 14.8125,3.8750004 H 13.25 V 2.3125011 A 0.3125,0.3125 0 0 0 12.9375,1.9999999 h -1.875 A 0.3125,0.3125 0 0 0 10.75,2.3125011 V 3.8750004 H 9.1874995 a 0.3125,0.3125 0 0 0 -0.3125,0.3125012 v 1.8749988 a 0.3125,0.3125 0 0 0 0.3125,0.3125013 H 10.75 V 8.2499998 H 4.4999995 A 1.25,1.25 0 0 0 3.307812,9.8726575 L 6.1624996,18.250002 H 17.8375 L 20.692188,9.8726575 A 1.25,1.25 0 0 0 19.5,8.2499998 Z" />
    </symbol>
    <symbol viewBox="0 0 24 24" id="knight-black"
      xmlns="http://www.w3.org/2000/svg"
      xmlns:svg="http://www.w3.org/2000/svg">
      <!-- Font Awesome Free 5.15.4 by @fontawesome - https://fontawesome.com License - https://fontawesome.com/license/free (Icons: CC BY 4.0, Fonts: SIL OFL 1.1, Code: MIT License) -->
      <path style="fill: var(--color-piece-fill-black); stroke: var(--color-piece-stroke-black); stroke-width: var(--piece-stroke-width)" d="m 4.7916681,12.019583 1.6929167,0.7525 a 1.3333333,1.3333333 0 0 0 1.0366666,0.01958 l 0.5325,-0.213334 A 1.3333333,1.3333333 0 0 0 8.8354181,11.724167 L 9.2195848,10.447083 A 1,1 0 0 1 9.7425014,9.795 L 10.664168,9.333333 v 2.097084 a 2,2 0 0 1 -1.1054166,1.789166 l -2.3841666,1.19375 A 3.3333333,3.3333333 0 0 0 5.3333348,17.395 V 18 H 18.660835 v -8 c 0,-4.416667 -3.58,-8 -7.996667,-8 H 4.5000014 a 0.5,0.5 0 0 0 -0.5,0.5 0.70416667,0.70416667 0 0 0 0.074583,0.315833 L 4.6666681,4 l -0.375,0.375 A 1,1 0 0 0 4.0000014,5.083333 v 5.717084 a 1.3333333,1.3333333 0 0 0 0.7916667,1.219166 z M 6.1666681,6 A 0.83333333,0.83333333 0 1 1 5.3333348,6.833333 0.83333333,0.83333333 0 0 1 6.1666681,6 Z M 19.333335,19.333333 H 4.6666681 A 0.66666667,0.66666667 0 0 0 4.0000014,20 v 1.333333 A 0.66666667,0.66666667 0 0 0 4.6666681,22 H 19.333335 a 0.66666667,0.66666667 0 0 0 0.666667,-0.666667 V 20 a 0.66666667,0.66666667 0 0 0 -0.666667,-0.666667 z" />
    </symbol>
    <symbol viewBox="0 0 24 24" id="pawn-black"
      xmlns="http://www.w3.org/2000/svg"
      xmlns:svg="http://www.w3.org/2000/svg">
      <!-- Font Awesome Free 5.15.4 by @fontawesome - https://fontawesome.com License - https://fontawesome.com/license/free (Icons: CC BY 4.0, Fonts: SIL OFL 1.1, Code: MIT License) -->
      <path style="fill: var(--color-piece-fill-black); stroke: var(--color-piece-stroke-black); stroke-width: var(--piece-stroke-width)" d="M 9.7125002,10 H 8.6666668 A 0.66666667,0.66666667 0 0 0 8.0000002,10.666667 V 12 a 0.66666667,0.66666667 0 0 0 0.6666666,0.666667 h 0.6666667 v 0.22875 c 0,1.833333 -0.1725,3.608333 -1,5.104583 h 7.3333335 c -0.82875,-1.49625 -1,-3.27125 -1,-5.104583 v -0.22875 h 0.666667 A 0.66666667,0.66666667 0 0 0 16,12 V 10.666667 A 0.66666667,0.66666667 0 0 0 15.333334,10 H 14.2875 c 1.224584,-0.7658327 2.045834,-2.1158327 2.045834,-3.6666667 a 4.3333336,4.3333336 0 0 0 -8.6666672,0 c 0,1.550834 0.82125,2.900834 2.0458334,3.6666667 z M 18,19.333333 H 6.0000002 A 0.66666667,0.66666667 0 0 0 5.3333335,20 v 1.333333 A 0.66666667,0.66666667 0 0 0 6.0000002,22 H 18 a 0.66666667,0.66666667 0 0 0 0.666666,-0.666667 V 20 A 0.66666667,0.66666667 0 0 0 18,19.333333 Z" />
    </symbol>
    <symbol viewBox="0 0 24 24" id="queen-black"
      xmlns="http://www.w3.org/2000/svg"
      xmlns:svg="http://www.w3.org/2000/svg">
      <!-- Font Awesome Free 5.15.4 by @fontawesome - https://fontawesome.com License - https://fontawesome.com/license/free (Icons: CC BY 4.0, Fonts: SIL OFL 1.1, Code: MIT License) -->
      <path style="fill: var(--color-piece-fill-black); stroke: var(--color-piece-stroke-black); stroke-width: var(--piece-stroke-width)" d="M 12,6.375 A 2.1875,2.1875 0 1 0 9.8125001,4.1875 2.1875,2.1875 0 0 0 12,6.375 Z M 18.875,19.5 H 5.1250001 a 0.625,0.625 0 0 0 -0.625,0.625 v 1.25 a 0.625,0.625 0 0 0 0.625,0.625 H 18.875 A 0.625,0.625 0 0 0 19.5,21.375 v -1.25 A 0.625,0.625 0 0 0 18.875,19.5 Z M 21.721484,9.19375 20.607812,8.571875 C 20.317187,8.3765625 19.947266,8.4757812 19.737109,8.7546875 A 1.8589844,1.8589844 0 0 1 17.892187,9.4667969 C 16.988282,9.2992188 16.375,8.4425782 16.375,7.5234375 A 0.5234375,0.5234375 0 0 0 15.851562,7 h -1.514453 c -0.234375,0 -0.453515,0.15625 -0.502343,0.3871093 a 1.875,1.875 0 0 1 -3.669531,0 C 10.116406,7.1558594 9.8988283,7 9.6628908,7 H 8.1484376 A 0.5234375,0.5234375 0 0 0 7.6250001,7.5234375 c 0,1.0035156 -0.7421875,1.9042969 -1.7449218,1.9722657 A 1.8554687,1.8554687 0 0 1 4.2574221,8.7476563 C 4.0511721,8.4707032 3.6820314,8.3785156 3.3945314,8.5703125 l -1.1160156,0.625 a 0.625,0.625 0 0 0 -0.2125,0.7996094 L 6.0718751,18.25 H 17.928125 L 21.933984,9.9933594 A 0.625,0.625 0 0 0 21.721484,9.19375 Z" />
    </symbol>
    <symbol viewBox="0 0 24 24" id="rook-black"
      xmlns="http://www.w3.org/2000/svg"
      xmlns:svg="http://www.w3.org/2000/svg">
      <!-- Font Awesome Free 5.15.4 by @fontawesome - https://fontawesome.com License - https://fontawesome.com/license/free (Icons: CC BY 4.0, Fonts: SIL OFL 1.1, Code: MIT License) -->
      <path style="fill: var(--color-piece-fill-black); stroke: var(--color-piece-stroke-black); stroke-width: var(--piece-stroke-width)" d="M 19.333333,2 H 17 a 0.66666667,0.66666667 0 0 0 -0.666667,0.666667 v 2 h -2 v -2 A 0.66666667,0.66666667 0 0 0 13.666667,2 H 10.333333 A 0.66666667,0.66666667 0 0 0 9.6666667,2.666667 v 2 H 7.6708333 v -2 A 0.66666667,0.66666667 0 0 0 7.0041667,2 h -2.3375 A 0.66666667,0.66666667 0 0 0 4,2.666667 V 10 l 2.6666667,1.333333 C 6.6666667,13.347083 6.6025,15.291667 6.11625,18 h 11.7675 C 17.3975,15.291667 17.333333,13.321667 17.333333,11.333333 L 20,10 V 2.666667 A 0.66666667,0.66666667 0 0 0 19.333333,2 Z m -6,12 h -2.666666 v -2.666667 a 1.3333333,1.3333333 0 0 1 2.666666,0 z m 6,5.333333 H 4.6666667 A 0.66666667,0.66666667 0 0 0 4,20 v 1.333333 A 0.66666667,0.66666667 0 0 0 4.6666667,22 H 19.333333 A 0.66666667,0.66666667 0 0 0 20,21.333333 V 20 a 0.66666667,0.66666667 0 0 0 -0.666667,-0.666667 z" />
    </symbol>
  </defs>
</svg>