<?xml version="1.0" encoding="utf-8"?>
<svg width="0" height="0" style="display: none">
  <defs>
    <!-- Material Design icons licensed under Pictogrammers Free License - https://pictogrammers.com/docs/general/license/ -->
    <!-- https://github.com/Templarian/MaterialDesign/tree/master -->
    <symbol xmlns="http://www.w3.org/2000/svg" viewBox="0 0 24 24" id="material_design-bishop-white">
      <path style="fill: var(--color-piece-fill-white); stroke: var(--color-piece-stroke-white); stroke-width: var(--piece-stroke-width)" d="M19,22H5V20H19V22M17.16,8.26C18.22,9.63 18.86,11.28 19,13C19,15.76 15.87,18 12,18C8.13,18 5,15.76 5,13C5,10.62 7.33,6.39 10.46,5.27C10.16,4.91 10,4.46 10,4A2,2 0 0,1 12,2A2,2 0 0,1 14,4C14,4.46 13.84,4.91 13.54,5.27C14.4,5.6 15.18,6.1 15.84,6.74L11.29,11.29L12.71,12.71L17.16,8.26Z" />
    </symbol>
    <symbol xmlns="http://www.w3.org/2000/svg" viewBox="0 0 24 24" id="material_design-king-white">
      <path style="fill: var(--color-piece-fill-white); stroke: var(--color-piece-stroke-white); stroke-width: var(--piece-stroke-width)" d="M19,22H5V20H19V22M17,10C15.58,10 14.26,10.77 13.55,12H13V7H16V5H13V2H11V5H8V7H11V12H10.45C9.35,10.09 6.9,9.43 5,10.54C3.07,11.64 2.42,14.09 3.5,16C4.24,17.24 5.57,18 7,18H17A4,4 0 0,0 21,14A4,4 0 0,0 17,10Z" />
    </symbol>
    <symbol xmlns="http://www.w3.org/2000/svg" viewBox="0 0 24 24" id="material_design-knight-white">
      <path style="fill: var(--color-piece-fill-white); stroke: var(--color-piece-stroke-white); stroke-width: var(--piece-stroke-width)" d="M19,22H5V20H19V22M13,2V2C11.75,2 10.58,2.62 9.89,3.66L7,8L9,10L11.06,8.63C11.5,8.32 12.14,8.44 12.45,8.9C12.47,8.93 12.5,8.96 12.5,9V9C12.8,9.59 12.69,10.3 12.22,10.77L7.42,15.57C6.87,16.13 6.87,17.03 7.43,17.58C7.69,17.84 8.05,18 8.42,18H17V6A4,4 0 0,0 13,2Z" />
    </symbol>
    <symbol xmlns="http://www.w3.org/2000/svg" viewBox="0 0 24 24" id="material_design-pawn-white">
      <path style="fill: var(--color-piece-fill-white); stroke: var(--color-piece-stroke-white); stroke-width: var(--piece-stroke-width)" d="M19 22H5V20H19V22M16 18H8L10.18 10H8V8H10.72L10.79 7.74C10.1 7.44 9.55 6.89 9.25 6.2C8.58 4.68 9.27 2.91 10.79 2.25C12.31 1.58 14.08 2.27 14.74 3.79C15.41 5.31 14.72 7.07 13.2 7.74L13.27 8H16V10H13.82L16 18Z" />
    </symbol>
    <symbol xmlns="http://www.w3.org/2000/svg" viewBox="0 0 24 24" id="material_design-queen-white">
      <path style="fill: var(--color-piece-fill-white); stroke: var(--color-piece-stroke-white); stroke-width: var(--piece-stroke-width)" d="M18,3A2,2 0 0,1 20,5C20,5.81 19.5,6.5 18.83,6.82L17,13.15V18H7V13.15L5.17,6.82C4.5,6.5 4,5.81 4,5A2,2 0 0,1 6,3A2,2 0 0,1 8,5C8,5.5 7.82,5.95 7.5,6.3L10.3,9.35L10.83,5.62C10.33,5.26 10,4.67 10,4A2,2 0 0,1 12,2A2,2 0 0,1 14,4C14,4.67 13.67,5.26 13.17,5.62L13.7,9.35L16.47,6.29C16.18,5.94 16,5.5 16,5A2,2 0 0,1 18,3M5,20H19V22H5V20Z" />
    </symbol>
    <symbol xmlns="http://www.w3.org/2000/svg" viewBox="0 0 24 24" id="material_design-rook-white">
      <path style="fill: var(--color-piece-fill-white); stroke: var(--color-piece-stroke-white); stroke-width: var(--piece-stroke-width)" d="M5,20H19V22H5V20M17,2V5H15V2H13V5H11V2H9V5H7V2H5V8H7V18H17V8H19V2H17Z" />
    </symbol>

    <symbol xmlns="http://www.w3.org/2000/svg" viewBox="0 0 24 24" id="material_design-bishop-black">
      <path style="fill: var(--color-piece-fill-black); stroke: var(--color-piece-stroke-black); stroke-width: var(--piece-stroke-width)" d="M19,22H5V20H19V22M17.16,8.26C18.22,9.63 18.86,11.28 19,13C19,15.76 15.87,18 12,18C8.13,18 5,15.76 5,13C5,10.62 7.33,6.39 10.46,5.27C10.16,4.91 10,4.46 10,4A2,2 0 0,1 12,2A2,2 0 0,1 14,4C14,4.46 13.84,4.91 13.54,5.27C14.4,5.6 15.18,6.1 15.84,6.74L11.29,11.29L12.71,12.71L17.16,8.26Z" />
    </symbol>
    <symbol xmlns="http://www.w3.org/2000/svg" viewBox="0 0 24 24" id="material_design-king-black">
      <path style="fill: var(--color-piece-fill-black); stroke: var(--color-piece-stroke-black); stroke-width: var(--piece-stroke-width)" d="M19,22H5V20H19V22M17,10C15.58,10 14.26,10.77 13.55,12H13V7H16V5H13V2H11V5H8V7H11V12H10.45C9.35,10.09 6.9,9.43 5,10.54C3.07,11.64 2.42,14.09 3.5,16C4.24,17.24 5.57,18 7,18H17A4,4 0 0,0 21,14A4,4 0 0,0 17,10Z" />
    </symbol>
    <symbol xmlns="http://www.w3.org/2000/svg" viewBox="0 0 24 24" id="material_design-knight-black">
      <path style="fill: var(--color-piece-fill-black); stroke: var(--color-piece-stroke-black); stroke-width: var(--piece-stroke-width)" d="M19,22H5V20H19V22M13,2V2C11.75,2 10.58,2.62 9.89,3.66L7,8L9,10L11.06,8.63C11.5,8.32 12.14,8.44 12.45,8.9C12.47,8.93 12.5,8.96 12.5,9V9C12.8,9.59 12.69,10.3 12.22,10.77L7.42,15.57C6.87,16.13 6.87,17.03 7.43,17.58C7.69,17.84 8.05,18 8.42,18H17V6A4,4 0 0,0 13,2Z" />
    </symbol>
    <symbol xmlns="http://www.w3.org/2000/svg" viewBox="0 0 24 24" id="material_design-pawn-black">
      <path style="fill: var(--color-piece-fill-black); stroke: var(--color-piece-stroke-black); stroke-width: var(--piece-stroke-width)" d="M19 22H5V20H19V22M16 18H8L10.18 10H8V8H10.72L10.79 7.74C10.1 7.44 9.55 6.89 9.25 6.2C8.58 4.68 9.27 2.91 10.79 2.25C12.31 1.58 14.08 2.27 14.74 3.79C15.41 5.31 14.72 7.07 13.2 7.74L13.27 8H16V10H13.82L16 18Z" />
    </symbol>
    <symbol xmlns="http://www.w3.org/2000/svg" viewBox="0 0 24 24" id="material_design-queen-black">
      <path style="fill: var(--color-piece-fill-black); stroke: var(--color-piece-stroke-black); stroke-width: var(--piece-stroke-width)" d="M18,3A2,2 0 0,1 20,5C20,5.81 19.5,6.5 18.83,6.82L17,13.15V18H7V13.15L5.17,6.82C4.5,6.5 4,5.81 4,5A2,2 0 0,1 6,3A2,2 0 0,1 8,5C8,5.5 7.82,5.95 7.5,6.3L10.3,9.35L10.83,5.62C10.33,5.26 10,4.67 10,4A2,2 0 0,1 12,2A2,2 0 0,1 14,4C14,4.67 13.67,5.26 13.17,5.62L13.7,9.35L16.47,6.29C16.18,5.94 16,5.5 16,5A2,2 0 0,1 18,3M5,20H19V22H5V20Z" />
    </symbol>
    <symbol xmlns="http://www.w3.org/2000/svg" viewBox="0 0 24 24" id="material_design-rook-black">
      <path style="fill: var(--color-piece-fill-black); stroke: var(--color-piece-stroke-black); stroke-width: var(--piece-stroke-width)" d="M5,20H19V22H5V20M17,2V5H15V2H13V5H11V2H9V5H7V2H5V8H7V18H17V8H19V2H17Z" />
    </symbol>
    <!-- Font Awesome Free 5.15.4 by @fontawesome - https://fontawesome.com License - https://fontawesome.com/license/free (Icons: CC BY 4.0, Fonts: SIL OFL 1.1, Code: MIT License) -->
    <!-- https://github.com/FortAwesome/Font-Awesome/ -->
    <symbol viewBox="0 0 24 24" id="font_awesome-bishop-white"
      xmlns="http://www.w3.org/2000/svg"
      xmlns:svg="http://www.w3.org/2000/svg">
      <path style="fill: var(--color-piece-fill-white); stroke: var(--color-piece-stroke-white); stroke-width: var(--piece-stroke-width)" d="m 6.0625233,13.245313 c 0,2.017186 0.8648401,2.883984 2.1874911,3.304686 v 1.700002 h 7.4999696 v -1.700002 c 1.322653,-0.420702 2.187493,-1.289063 2.187493,-3.304686 0,-1.195703 -0.419139,-2.621095 -1.042574,-4.0062511 l -3.918342,3.9191411 a 0.31249877,0.31249999 0 0 1 -0.441798,0 l -0.441795,-0.441797 a 0.31249877,0.31249999 0 0 1 0,-0.441796 L 16.307406,8.0585931 C 15.494908,6.5777342 14.49218,5.2421874 13.539056,4.4417969 14.085929,4.308203 14.49999,3.8378905 14.49999,3.25 A 1.2499951,1.2500001 0 0 0 13.249995,2 h -2.49999 A 1.2499951,1.2500001 0 0 0 9.5000096,3.25 c 0,0.5859374 0.4140625,1.058203 0.9609324,1.1917969 C 8.3988422,6.1718748 6.0625233,10.378907 6.0625233,13.245313 Z M 17.624978,19.5 H 6.375022 A 0.62499754,0.62499998 0 0 0 5.7500244,20.124999 V 21.375 A 0.62499754,0.62499998 0 0 0 6.375022,22 h 11.249956 a 0.62499754,0.62499998 0 0 0 0.624998,-0.625 V 20.124999 A 0.62499754,0.62499998 0 0 0 17.624978,19.5 Z" />
    </symbol>
    <symbol viewBox="0 0 24 24" id="font_awesome-king-white"
      xmlns="http://www.w3.org/2000/svg"
      xmlns:svg="http://www.w3.org/2000/svg">
      <path style="fill: var(--color-piece-fill-white); stroke: var(--color-piece-stroke-white); stroke-width: var(--piece-stroke-width)" d="M 18.875,19.5 H 5.1249997 a 0.625,0.625 0 0 0 -0.6250002,0.625 v 1.25 A 0.625,0.625 0 0 0 5.1249997,22 H 18.875 A 0.625,0.625 0 0 0 19.5,21.375 v -1.25 A 0.625,0.625 0 0 0 18.875,19.5 Z M 19.5,8.2499998 H 13.25 V 6.3750017 h 1.5625 A 0.3125,0.3125 0 0 0 15.125,6.0625004 V 4.1875016 A 0.3125,0.3125 0 0 0 14.8125,3.8750004 H 13.25 V 2.3125011 A 0.3125,0.3125 0 0 0 12.9375,1.9999999 h -1.875 A 0.3125,0.3125 0 0 0 10.75,2.3125011 V 3.8750004 H 9.1874995 a 0.3125,0.3125 0 0 0 -0.3125,0.3125012 v 1.8749988 a 0.3125,0.3125 0 0 0 0.3125,0.3125013 H 10.75 V 8.2499998 H 4.4999995 A 1.25,1.25 0 0 0 3.307812,9.8726575 L 6.1624996,18.250002 H 17.8375 L 20.692188,9.8726575 A 1.25,1.25 0 0 0 19.5,8.2499998 Z" />
    </symbol>
    <symbol viewBox="0 0 24 24" id="font_awesome-knight-white"
      xmlns="http://www.w3.org/2000/svg"
      xmlns:svg="http://www.w3.org/2000/svg">
      <path style="fill: var(--color-piece-fill-white); stroke: var(--color-piece-stroke-white); stroke-width: var(--piece-stroke-width)" d="m 4.7916681,12.019583 1.6929167,0.7525 a 1.3333333,1.3333333 0 0 0 1.0366666,0.01958 l 0.5325,-0.213334 A 1.3333333,1.3333333 0 0 0 8.8354181,11.724167 L 9.2195848,10.447083 A 1,1 0 0 1 9.7425014,9.795 L 10.664168,9.333333 v 2.097084 a 2,2 0 0 1 -1.1054166,1.789166 l -2.3841666,1.19375 A 3.3333333,3.3333333 0 0 0 5.3333348,17.395 V 18 H 18.660835 v -8 c 0,-4.416667 -3.58,-8 -7.996667,-8 H 4.5000014 a 0.5,0.5 0 0 0 -0.5,0.5 0.70416667,0.70416667 0 0 0 0.074583,0.315833 L 4.6666681,4 l -0.375,0.375 A 1,1 0 0 0 4.0000014,5.083333 v 5.717084 a 1.3333333,1.3333333 0 0 0 0.7916667,1.219166 z M 6.1666681,6 A 0.83333333,0.83333333 0 1 1 5.3333348,6.833333 0.83333333,0.83333333 0 0 1 6.1666681,6 Z M 19.333335,19.333333 H 4.6666681 A 0.66666667,0.66666667 0 0 0 4.0000014,20 v 1.333333 A 0.66666667,0.66666667 0 0 0 4.6666681,22 H 19.333335 a 0.66666667,0.66666667 0 0 0 0.666667,-0.666667 V 20 a 0.66666667,0.66666667 0 0 0 -0.666667,-0.666667 z" />
    </symbol>
    <symbol viewBox="0 0 24 24" id="font_awesome-pawn-white"
      xmlns="http://www.w3.org/2000/svg"
      xmlns:svg="http://www.w3.org/2000/svg">
      <path style="fill: var(--color-piece-fill-white); stroke: var(--color-piece-stroke-white); stroke-width: var(--piece-stroke-width)" d="M 9.7125002,10 H 8.6666668 A 0.66666667,0.66666667 0 0 0 8.0000002,10.666667 V 12 a 0.66666667,0.66666667 0 0 0 0.6666666,0.666667 h 0.6666667 v 0.22875 c 0,1.833333 -0.1725,3.608333 -1,5.104583 h 7.3333335 c -0.82875,-1.49625 -1,-3.27125 -1,-5.104583 v -0.22875 h 0.666667 A 0.66666667,0.66666667 0 0 0 16,12 V 10.666667 A 0.66666667,0.66666667 0 0 0 15.333334,10 H 14.2875 c 1.224584,-0.7658327 2.045834,-2.1158327 2.045834,-3.6666667 a 4.3333336,4.3333336 0 0 0 -8.6666672,0 c 0,1.550834 0.82125,2.900834 2.0458334,3.6666667 z M 18,19.333333 H 6.0000002 A 0.66666667,0.66666667 0 0 0 5.3333335,20 v 1.333333 A 0.66666667,0.66666667 0 0 0 6.0000002,22 H 18 a 0.66666667,0.66666667 0 0 0 0.666666,-0.666667 V 20 A 0.66666667,0.66666667 0 0 0 18,19.333333 Z" />
    </symbol>
    <symbol viewBox="0 0 24 24" id="font_awesome-queen-white"
      xmlns="http://www.w3.org/2000/svg"
      xmlns:svg="http://www.w3.org/2000/svg">
      <path style="fill: var(--color-piece-fill-white); stroke: var(--color-piece-stroke-white); stroke-width: var(--piece-stroke-width)" d="M 12,6.375 A 2.1875,2.1875 0 1 0 9.8125001,4.1875 2.1875,2.1875 0 0 0 12,6.375 Z M 18.875,19.5 H 5.1250001 a 0.625,0.625 0 0 0 -0.625,0.625 v 1.25 a 0.625,0.625 0 0 0 0.625,0.625 H 18.875 A 0.625,0.625 0 0 0 19.5,21.375 v -1.25 A 0.625,0.625 0 0 0 18.875,19.5 Z M 21.721484,9.19375 20.607812,8.571875 C 20.317187,8.3765625 19.947266,8.4757812 19.737109,8.7546875 A 1.8589844,1.8589844 0 0 1 17.892187,9.4667969 C 16.988282,9.2992188 16.375,8.4425782 16.375,7.5234375 A 0.5234375,0.5234375 0 0 0 15.851562,7 h -1.514453 c -0.234375,0 -0.453515,0.15625 -0.502343,0.3871093 a 1.875,1.875 0 0 1 -3.669531,0 C 10.116406,7.1558594 9.8988283,7 9.6628908,7 H 8.1484376 A 0.5234375,0.5234375 0 0 0 7.6250001,7.5234375 c 0,1.0035156 -0.7421875,1.9042969 -1.7449218,1.9722657 A 1.8554687,1.8554687 0 0 1 4.2574221,8.7476563 C 4.0511721,8.4707032 3.6820314,8.3785156 3.3945314,8.5703125 l -1.1160156,0.625 a 0.625,0.625 0 0 0 -0.2125,0.7996094 L 6.0718751,18.25 H 17.928125 L 21.933984,9.9933594 A 0.625,0.625 0 0 0 21.721484,9.19375 Z" />
    </symbol>
    <symbol viewBox="0 0 24 24" id="font_awesome-rook-white"
      xmlns="http://www.w3.org/2000/svg"
      xmlns:svg="http://www.w3.org/2000/svg">
      <path style="fill: var(--color-piece-fill-white); stroke: var(--color-piece-stroke-white); stroke-width: var(--piece-stroke-width)" d="M 19.333333,2 H 17 a 0.66666667,0.66666667 0 0 0 -0.666667,0.666667 v 2 h -2 v -2 A 0.66666667,0.66666667 0 0 0 13.666667,2 H 10.333333 A 0.66666667,0.66666667 0 0 0 9.6666667,2.666667 v 2 H 7.6708333 v -2 A 0.66666667,0.66666667 0 0 0 7.0041667,2 h -2.3375 A 0.66666667,0.66666667 0 0 0 4,2.666667 V 10 l 2.6666667,1.333333 C 6.6666667,13.347083 6.6025,15.291667 6.11625,18 h 11.7675 C 17.3975,15.291667 17.333333,13.321667 17.333333,11.333333 L 20,10 V 2.666667 A 0.66666667,0.66666667 0 0 0 19.333333,2 Z m -6,12 h -2.666666 v -2.666667 a 1.3333333,1.3333333 0 0 1 2.666666,0 z m 6,5.333333 H 4.6666667 A 0.66666667,0.66666667 0 0 0 4,20 v 1.333333 A 0.66666667,0.66666667 0 0 0 4.6666667,22 H 19.333333 A 0.66666667,0.66666667 0 0 0 20,21.333333 V 20 a 0.66666667,0.66666667 0 0 0 -0.666667,-0.666667 z" />
    </symbol>
    <symbol viewBox="0 0 24 24" id="font_awesome-bishop-black"
      xmlns="http://www.w3.org/2000/svg"
      xmlns:svg="http://www.w3.org/2000/svg">
      <path style="fill: var(--color-piece-fill-black); stroke: var(--color-piece-stroke-black); stroke-width: var(--piece-stroke-width)" d="m 6.0625233,13.245313 c 0,2.017186 0.8648401,2.883984 2.1874911,3.304686 v 1.700002 h 7.4999696 v -1.700002 c 1.322653,-0.420702 2.187493,-1.289063 2.187493,-3.304686 0,-1.195703 -0.419139,-2.621095 -1.042574,-4.0062511 l -3.918342,3.9191411 a 0.31249877,0.31249999 0 0 1 -0.441798,0 l -0.441795,-0.441797 a 0.31249877,0.31249999 0 0 1 0,-0.441796 L 16.307406,8.0585931 C 15.494908,6.5777342 14.49218,5.2421874 13.539056,4.4417969 14.085929,4.308203 14.49999,3.8378905 14.49999,3.25 A 1.2499951,1.2500001 0 0 0 13.249995,2 h -2.49999 A 1.2499951,1.2500001 0 0 0 9.5000096,3.25 c 0,0.5859374 0.4140625,1.058203 0.9609324,1.1917969 C 8.3988422,6.1718748 6.0625233,10.378907 6.0625233,13.245313 Z M 17.624978,19.5 H 6.375022 A 0.62499754,0.62499998 0 0 0 5.7500244,20.124999 V 21.375 A 0.62499754,0.62499998 0 0 0 6.375022,22 h 11.249956 a 0.62499754,0.62499998 0 0 0 0.624998,-0.625 V 20.124999 A 0.62499754,0.62499998 0 0 0 17.624978,19.5 Z" />
    </symbol>
    <symbol viewBox="0 0 24 24" id="font_awesome-king-black"
      xmlns="http://www.w3.org/2000/svg"
      xmlns:svg="http://www.w3.org/2000/svg">
      <path style="fill: var(--color-piece-fill-black); stroke: var(--color-piece-stroke-black); stroke-width: var(--piece-stroke-width)" d="M 18.875,19.5 H 5.1249997 a 0.625,0.625 0 0 0 -0.6250002,0.625 v 1.25 A 0.625,0.625 0 0 0 5.1249997,22 H 18.875 A 0.625,0.625 0 0 0 19.5,21.375 v -1.25 A 0.625,0.625 0 0 0 18.875,19.5 Z M 19.5,8.2499998 H 13.25 V 6.3750017 h 1.5625 A 0.3125,0.3125 0 0 0 15.125,6.0625004 V 4.1875016 A 0.3125,0.3125 0 0 0 14.8125,3.8750004 H 13.25 V 2.3125011 A 0.3125,0.3125 0 0 0 12.9375,1.9999999 h -1.875 A 0.3125,0.3125 0 0 0 10.75,2.3125011 V 3.8750004 H 9.1874995 a 0.3125,0.3125 0 0 0 -0.3125,0.3125012 v 1.8749988 a 0.3125,0.3125 0 0 0 0.3125,0.3125013 H 10.75 V 8.2499998 H 4.4999995 A 1.25,1.25 0 0 0 3.307812,9.8726575 L 6.1624996,18.250002 H 17.8375 L 20.692188,9.8726575 A 1.25,1.25 0 0 0 19.5,8.2499998 Z" />
    </symbol>
    <symbol viewBox="0 0 24 24" id="font_awesome-knight-black"
      xmlns="http://www.w3.org/2000/svg"
      xmlns:svg="http://www.w3.org/2000/svg">
      <path style="fill: var(--color-piece-fill-black); stroke: var(--color-piece-stroke-black); stroke-width: var(--piece-stroke-width)" d="m 4.7916681,12.019583 1.6929167,0.7525 a 1.3333333,1.3333333 0 0 0 1.0366666,0.01958 l 0.5325,-0.213334 A 1.3333333,1.3333333 0 0 0 8.8354181,11.724167 L 9.2195848,10.447083 A 1,1 0 0 1 9.7425014,9.795 L 10.664168,9.333333 v 2.097084 a 2,2 0 0 1 -1.1054166,1.789166 l -2.3841666,1.19375 A 3.3333333,3.3333333 0 0 0 5.3333348,17.395 V 18 H 18.660835 v -8 c 0,-4.416667 -3.58,-8 -7.996667,-8 H 4.5000014 a 0.5,0.5 0 0 0 -0.5,0.5 0.70416667,0.70416667 0 0 0 0.074583,0.315833 L 4.6666681,4 l -0.375,0.375 A 1,1 0 0 0 4.0000014,5.083333 v 5.717084 a 1.3333333,1.3333333 0 0 0 0.7916667,1.219166 z M 6.1666681,6 A 0.83333333,0.83333333 0 1 1 5.3333348,6.833333 0.83333333,0.83333333 0 0 1 6.1666681,6 Z M 19.333335,19.333333 H 4.6666681 A 0.66666667,0.66666667 0 0 0 4.0000014,20 v 1.333333 A 0.66666667,0.66666667 0 0 0 4.6666681,22 H 19.333335 a 0.66666667,0.66666667 0 0 0 0.666667,-0.666667 V 20 a 0.66666667,0.66666667 0 0 0 -0.666667,-0.666667 z" />
    </symbol>
    <symbol viewBox="0 0 24 24" id="font_awesome-pawn-black"
      xmlns="http://www.w3.org/2000/svg"
      xmlns:svg="http://www.w3.org/2000/svg">
      <path style="fill: var(--color-piece-fill-black); stroke: var(--color-piece-stroke-black); stroke-width: var(--piece-stroke-width)" d="M 9.7125002,10 H 8.6666668 A 0.66666667,0.66666667 0 0 0 8.0000002,10.666667 V 12 a 0.66666667,0.66666667 0 0 0 0.6666666,0.666667 h 0.6666667 v 0.22875 c 0,1.833333 -0.1725,3.608333 -1,5.104583 h 7.3333335 c -0.82875,-1.49625 -1,-3.27125 -1,-5.104583 v -0.22875 h 0.666667 A 0.66666667,0.66666667 0 0 0 16,12 V 10.666667 A 0.66666667,0.66666667 0 0 0 15.333334,10 H 14.2875 c 1.224584,-0.7658327 2.045834,-2.1158327 2.045834,-3.6666667 a 4.3333336,4.3333336 0 0 0 -8.6666672,0 c 0,1.550834 0.82125,2.900834 2.0458334,3.6666667 z M 18,19.333333 H 6.0000002 A 0.66666667,0.66666667 0 0 0 5.3333335,20 v 1.333333 A 0.66666667,0.66666667 0 0 0 6.0000002,22 H 18 a 0.66666667,0.66666667 0 0 0 0.666666,-0.666667 V 20 A 0.66666667,0.66666667 0 0 0 18,19.333333 Z" />
    </symbol>
    <symbol viewBox="0 0 24 24" id="font_awesome-queen-black"
      xmlns="http://www.w3.org/2000/svg"
      xmlns:svg="http://www.w3.org/2000/svg">
      <path style="fill: var(--color-piece-fill-black); stroke: var(--color-piece-stroke-black); stroke-width: var(--piece-stroke-width)" d="M 12,6.375 A 2.1875,2.1875 0 1 0 9.8125001,4.1875 2.1875,2.1875 0 0 0 12,6.375 Z M 18.875,19.5 H 5.1250001 a 0.625,0.625 0 0 0 -0.625,0.625 v 1.25 a 0.625,0.625 0 0 0 0.625,0.625 H 18.875 A 0.625,0.625 0 0 0 19.5,21.375 v -1.25 A 0.625,0.625 0 0 0 18.875,19.5 Z M 21.721484,9.19375 20.607812,8.571875 C 20.317187,8.3765625 19.947266,8.4757812 19.737109,8.7546875 A 1.8589844,1.8589844 0 0 1 17.892187,9.4667969 C 16.988282,9.2992188 16.375,8.4425782 16.375,7.5234375 A 0.5234375,0.5234375 0 0 0 15.851562,7 h -1.514453 c -0.234375,0 -0.453515,0.15625 -0.502343,0.3871093 a 1.875,1.875 0 0 1 -3.669531,0 C 10.116406,7.1558594 9.8988283,7 9.6628908,7 H 8.1484376 A 0.5234375,0.5234375 0 0 0 7.6250001,7.5234375 c 0,1.0035156 -0.7421875,1.9042969 -1.7449218,1.9722657 A 1.8554687,1.8554687 0 0 1 4.2574221,8.7476563 C 4.0511721,8.4707032 3.6820314,8.3785156 3.3945314,8.5703125 l -1.1160156,0.625 a 0.625,0.625 0 0 0 -0.2125,0.7996094 L 6.0718751,18.25 H 17.928125 L 21.933984,9.9933594 A 0.625,0.625 0 0 0 21.721484,9.19375 Z" />
    </symbol>
    <symbol viewBox="0 0 24 24" id="font_awesome-rook-black"
      xmlns="http://www.w3.org/2000/svg"
      xmlns:svg="http://www.w3.org/2000/svg">
      <path style="fill: var(--color-piece-fill-black); stroke: var(--color-piece-stroke-black); stroke-width: var(--piece-stroke-width)" d="M 19.333333,2 H 17 a 0.66666667,0.66666667 0 0 0 -0.666667,0.666667 v 2 h -2 v -2 A 0.66666667,0.66666667 0 0 0 13.666667,2 H 10.333333 A 0.66666667,0.66666667 0 0 0 9.6666667,2.666667 v 2 H 7.6708333 v -2 A 0.66666667,0.66666667 0 0 0 7.0041667,2 h -2.3375 A 0.66666667,0.66666667 0 0 0 4,2.666667 V 10 l 2.6666667,1.333333 C 6.6666667,13.347083 6.6025,15.291667 6.11625,18 h 11.7675 C 17.3975,15.291667 17.333333,13.321667 17.333333,11.333333 L 20,10 V 2.666667 A 0.66666667,0.66666667 0 0 0 19.333333,2 Z m -6,12 h -2.666666 v -2.666667 a 1.3333333,1.3333333 0 0 1 2.666666,0 z m 6,5.333333 H 4.6666667 A 0.66666667,0.66666667 0 0 0 4,20 v 1.333333 A 0.66666667,0.66666667 0 0 0 4.6666667,22 H 19.333333 A 0.66666667,0.66666667 0 0 0 20,21.333333 V 20 a 0.66666667,0.66666667 0 0 0 -0.666667,-0.666667 z" />
    </symbol>
    <!-- Tabler icons licensed under MIT license - https://github.com/tabler/tabler-icons/blob/master/LICENSE -->
    <!-- https://github.com/tabler/tabler-icons -->
    <symbol viewBox="0 0 24 24" stroke-width="2" stroke="currentColor" fill="none" stroke-linecap="round" stroke-linejoin="round" id="tabler-bishop-white"
      xmlns="http://www.w3.org/2000/svg"
      xmlns:svg="http://www.w3.org/2000/svg">
      <defs id="defs14" />
      <path stroke="none" d="M0 0h24v24H0z" fill="none" id="path2" />
      <path d="M12 5v1" stroke-width="0" fill="currentColor" id="path6" />
      <g id="g57" transform="matrix(1.0526315,0,0,1.0526315,-0.63142959,-0.10526228)" style="fill:var(--color-piece-fill-white);fill-opacity:1;stroke:var(--color-piece-stroke-white);stroke-opacity:1;stroke-width:var(--piece-stroke-width);stroke-miterlimit:4;stroke-dasharray:none">
        <path d="m 12,2 a 2,2 0 0 1 1.386,3.442 c 0.646,0.28 1.226,0.62 1.74,1.017 l -3.833,3.834 -0.083,0.094 a 1,1 0 0 0 1.403,1.403 l 0.094,-0.083 3.814,-3.813 C 17.498,9.244 18,10.964 18,13 c 0,1.913 -1.178,3.722 -3.089,3.973 l -0.2,0.02 L 14.5,17 h -5 C 7.374,17 6,15.076 6,13 6,9.32 7.57,6.745 10.613,5.44 A 2,2 0 0 1 12,2 Z" stroke-width="0" fill="currentColor" id="path4" style="fill:var(--color-piece-fill-white);fill-opacity:1;stroke:var(--color-piece-stroke-white);stroke-opacity:1;stroke-width:var(--piece-stroke-width);stroke-miterlimit:4;stroke-dasharray:none" />
        <path d="M 18,18 H 6 a 1,1 0 0 0 -1,1 2,2 0 0 0 2,2 h 10 a 2,2 0 0 0 1.987,-1.768 l 0.011,-0.174 A 1,1 0 0 0 18,18 Z" stroke-width="0" fill="currentColor" id="path8" style="fill:var(--color-piece-fill-white);fill-opacity:1;stroke:var(--color-piece-stroke-white);stroke-opacity:1;stroke-width:var(--piece-stroke-width);stroke-miterlimit:4;stroke-dasharray:none" />
      </g>
    </symbol>
    <symbol viewBox="0 0 24 24" stroke-width="2" stroke="currentColor" fill="none" stroke-linecap="round" stroke-linejoin="round" id="tabler-pawn-white"
      xmlns="http://www.w3.org/2000/svg"
      xmlns:svg="http://www.w3.org/2000/svg">
      <defs id="defs12" />
      <path stroke="none" d="M0 0h24v24H0z" fill="none" id="path2" />
      <g id="g831" transform="matrix(1.0526315,0,0,1.0526315,-0.63142959,-0.10526228)">
        <g id="g835" style="fill:var(--color-piece-fill-white);fill-opacity:1;stroke-width:var(--piece-stroke-width);stroke-miterlimit:4;stroke-dasharray:none;stroke:var(--color-piece-stroke-white);stroke-opacity:1">
          <path d="m 12,2 a 4,4 0 0 1 4,4 5.03,5.03 0 0 1 -0.438,2.001 L 16,8 a 1,1 0 0 1 0.117,1.993 L 16,10 h -1.263 l 1.24,5.79 A 1,1 0 0 1 15.23,16.974 L 15.117,16.994 15,17 H 9 A 1,1 0 0 1 8.004,15.907 L 8.022,15.79 9.262,10 H 8 A 1,1 0 0 1 7.883,8.007 L 8,8 H 8.438 A 5.154,5.154 0 0 1 8.026,6.475 L 8.006,6.216 8,6 a 4,4 0 0 1 4,-4 z" stroke-width="0" fill="currentColor" id="path4" style="fill:var(--color-piece-fill-white);fill-opacity:1;stroke-width:var(--piece-stroke-width);stroke-miterlimit:4;stroke-dasharray:none;stroke:var(--color-piece-stroke-white);stroke-opacity:1" />
          <path d="M 18,18 H 6 a 1,1 0 0 0 -1,1 2,2 0 0 0 2,2 h 10 a 2,2 0 0 0 1.987,-1.768 l 0.011,-0.174 A 1,1 0 0 0 18,18 Z" stroke-width="0" fill="currentColor" id="path6" style="fill:var(--color-piece-fill-white);fill-opacity:1;stroke-width:var(--piece-stroke-width);stroke-miterlimit:4;stroke-dasharray:none;stroke:var(--color-piece-stroke-white);stroke-opacity:1" />
        </g>
      </g>
    </symbol>
    <symbol viewBox="0 0 24 24" stroke-width="2" stroke="currentColor" fill="none" stroke-linecap="round" stroke-linejoin="round" id="tabler-king-white"
      xmlns="http://www.w3.org/2000/svg"
      xmlns:svg="http://www.w3.org/2000/svg">
      <defs id="defs12" />
      <path stroke="none" d="M0 0h24v24H0z" fill="none" id="path2" />
      <g id="g831" transform="matrix(1.0526315,0,0,1.0526315,-0.63001343,-0.10526228)" style="fill:var(--color-piece-fill-white);fill-opacity:1;stroke-width:var(--piece-stroke-width);stroke-miterlimit:4;stroke-dasharray:none;stroke:var(--color-piece-stroke-white);stroke-opacity:1">
        <path d="m 12,2 a 1,1 0 0 1 0.993,0.883 L 13,3 v 2 h 2 a 1,1 0 0 1 0.117,1.993 L 15,7 H 13 V 8.758 A 4.49,4.49 0 0 1 15.033,8.024 L 15.273,8.006 15.5,8 a 4.5,4.5 0 0 1 4.5,4.5 4.504,4.504 0 0 1 -4.064,4.478 L 15.719,16.994 15.5,17 h -7 A 4.5,4.5 0 1 1 11.001,8.759 L 11,7 H 9 A 1,1 0 0 1 8.883,5.007 L 9,5 h 2 V 3 a 1,1 0 0 1 1,-1 z" stroke-width="0" fill="currentColor" id="path4" style="fill:var(--color-piece-fill-white);fill-opacity:1;stroke-width:var(--piece-stroke-width);stroke-miterlimit:4;stroke-dasharray:none;stroke:var(--color-piece-stroke-white);stroke-opacity:1" />
        <path d="M 18,18 H 6 a 1,1 0 0 0 -1,1 2,2 0 0 0 2,2 h 10 a 2,2 0 0 0 1.987,-1.768 l 0.011,-0.174 A 1,1 0 0 0 18,18 Z" stroke-width="0" fill="currentColor" id="path6" style="fill:var(--color-piece-fill-white);fill-opacity:1;stroke-width:var(--piece-stroke-width);stroke-miterlimit:4;stroke-dasharray:none;stroke:var(--color-piece-stroke-white);stroke-opacity:1" />
      </g>
    </symbol>
    <symbol viewBox="0 0 24 24" stroke-width="2" stroke="currentColor" fill="none" stroke-linecap="round" stroke-linejoin="round" id="tabler-knight-white"
      xmlns="http://www.w3.org/2000/svg"
      xmlns:svg="http://www.w3.org/2000/svg">
      <defs id="defs12" />
      <path stroke="none" d="M0 0h24v24H0z" fill="none" id="path2" />
      <g id="g831" transform="matrix(1.0518565,0,0,1.0518565,-0.6221297,-0.08898679)" style="fill:var(--color-piece-fill-white);fill-opacity:1;stroke-width:var(--piece-stroke-width);stroke-miterlimit:4;stroke-dasharray:none;stroke:var(--color-piece-stroke-white);stroke-opacity:1">
        <path d="M 8.959,1.99 8.812,2.018 8.697,2.047 A 1,1 0 0 0 8.051,3.317 L 8.8,5.562 5.985,7.297 A 2,2 0 0 0 5.33,10.048 l 0.089,0.133 A 2,2 0 0 0 7.033,11 L 8.596,10.999 6.982,15.673 A 1,1 0 0 0 7.927,17 h 7.961 a 1,1 0 0 0 1,-0.978 l 0.112,-5 C 17,7.195 15.445,4.144 12.33,3.056 L 9.931,2.226 9.556,2.105 9.298,2.031 9.163,2 9.062,1.987 9.007,1.986 8.959,1.989 Z" stroke-width="0" fill="currentColor" id="path4" style="fill:var(--color-piece-fill-white);fill-opacity:1;stroke-width:var(--piece-stroke-width);stroke-miterlimit:4;stroke-dasharray:none;stroke:var(--color-piece-stroke-white);stroke-opacity:1" />
        <path d="M 18,18 H 6 a 1,1 0 0 0 -1,1 2,2 0 0 0 2,2 h 10 a 2,2 0 0 0 1.987,-1.768 l 0.011,-0.174 A 1,1 0 0 0 18,18 Z" stroke-width="0" fill="currentColor" id="path6" style="fill:var(--color-piece-fill-white);fill-opacity:1;stroke-width:var(--piece-stroke-width);stroke-miterlimit:4;stroke-dasharray:none;stroke:var(--color-piece-stroke-white);stroke-opacity:1" />
      </g>
    </symbol>
    <symbol viewBox="0 0 24 24" stroke-width="2" stroke="currentColor" fill="none" stroke-linecap="round" stroke-linejoin="round" id="tabler-queen-white"
      xmlns="http://www.w3.org/2000/svg"
      xmlns:svg="http://www.w3.org/2000/svg">
      <defs id="defs12" />
      <path stroke="none" d="M0 0h24v24H0z" fill="none" id="path2" />
      <g id="g831" transform="matrix(1.0526315,0,0,1.0526315,-0.63440944,-0.10526228)" style="fill:var(--color-piece-fill-white);fill-opacity:1;stroke-width:var(--piece-stroke-width);stroke-miterlimit:4;stroke-dasharray:none;stroke:var(--color-piece-stroke-white);stroke-opacity:1">
        <path d="m 12,2 a 2,2 0 0 1 1.572,3.236 l 0.793,1.983 1.702,-1.702 A 2.003,2.003 0 0 1 18,3 2,2 0 0 1 18.674,6.884 l -1.69,9.295 a 1,1 0 0 1 -0.865,0.814 L 16,17 H 8 A 1,1 0 0 1 7.044,16.295 L 7.016,16.179 5.326,6.884 A 2,2 0 1 1 7.933,5.517 L 9.634,7.219 10.428,5.236 A 2,2 0 0 1 12,2 Z" stroke-width="0" fill="currentColor" id="path4" style="fill:var(--color-piece-fill-white);fill-opacity:1;stroke-width:var(--piece-stroke-width);stroke-miterlimit:4;stroke-dasharray:none;stroke:var(--color-piece-stroke-white);stroke-opacity:1" />
        <path d="M 18,18 H 6 a 1,1 0 0 0 -1,1 2,2 0 0 0 2,2 h 10 a 2,2 0 0 0 1.987,-1.768 l 0.011,-0.174 A 1,1 0 0 0 18,18 Z" stroke-width="0" fill="currentColor" id="path6" style="fill:var(--color-piece-fill-white);fill-opacity:1;stroke-width:var(--piece-stroke-width);stroke-miterlimit:4;stroke-dasharray:none;stroke:var(--color-piece-stroke-white);stroke-opacity:1" />
      </g>
    </symbol>
    <symbol viewBox="0 0 24 24" stroke-width="2" stroke="currentColor" fill="none" stroke-linecap="round" stroke-linejoin="round" id="tabler-rook-white"
      xmlns="http://www.w3.org/2000/svg"
      xmlns:svg="http://www.w3.org/2000/svg">
      <defs id="defs12" />
      <path stroke="none" d="M0 0h24v24H0z" fill="none" id="path2" />
      <g id="g1052">
        <g id="g831" transform="matrix(1.1109807,0,0,1.1109807,-1.3311462,-1.3305952)" style="fill:var(--color-piece-fill-white);fill-opacity:1;stroke-width:var(--piece-stroke-width);stroke-miterlimit:4;stroke-dasharray:none;stroke:var(--color-piece-stroke-white);stroke-opacity:1">
          <path d="m 14,3 a 1,1 0 0 1 0.993,0.883 L 15,4 v 2 h 1.652 L 17.014,3.836 A 1,1 0 0 1 18.048,3 l 0.116,0.013 A 1,1 0 0 1 19,4.048 l -0.013,0.116 -0.5,3 A 1,1 0 0 1 17.622,7.993 L 17.5,8 h -1.383 l 0.877,7.89 a 1,1 0 0 1 -0.877,1.103 L 16,17 H 8 A 1,1 0 0 1 7,16.007 L 7.006,15.89 7.883,8 H 6.5 A 1,1 0 0 1 5.54,7.282 l -0.026,-0.118 -0.5,-3 A 1,1 0 0 1 6.961,3.722 L 6.986,3.836 7.347,6 H 9 V 4 A 1,1 0 0 1 10.993,3.883 L 11,4 v 2 h 2 V 4 a 1,1 0 0 1 1,-1 z" stroke-width="0" fill="currentColor" id="path4" style="fill:var(--color-piece-fill-white);fill-opacity:1;stroke-width:var(--piece-stroke-width);stroke-miterlimit:4;stroke-dasharray:none;stroke:var(--color-piece-stroke-white);stroke-opacity:1" />
          <path d="M 18,18 H 6 a 1,1 0 0 0 -1,1 2,2 0 0 0 2,2 h 10 a 2,2 0 0 0 1.987,-1.768 l 0.011,-0.174 A 1,1 0 0 0 18,18 Z" stroke-width="0" fill="currentColor" id="path6" style="fill:var(--color-piece-fill-white);fill-opacity:1;stroke-width:var(--piece-stroke-width);stroke-miterlimit:4;stroke-dasharray:none;stroke:var(--color-piece-stroke-white);stroke-opacity:1" />
        </g>
      </g>
    </symbol>

    <symbol viewBox="0 0 24 24" stroke-width="2" stroke="currentColor" fill="none" stroke-linecap="round" stroke-linejoin="round" id="tabler-bishop-black"
      xmlns="http://www.w3.org/2000/svg"
      xmlns:svg="http://www.w3.org/2000/svg">
      <defs id="defs14" />
      <path stroke="none" d="M0 0h24v24H0z" fill="none" id="path2" />
      <path d="M12 5v1" stroke-width="0" fill="currentColor" id="path6" />
      <g id="g57" transform="matrix(1.0526315,0,0,1.0526315,-0.63142959,-0.10526228)" style="fill: var(--color-piece-fill-black);fill-opacity:1;stroke:var(--color-piece-stroke-black);stroke-opacity:1;stroke-width:var(--piece-stroke-width);stroke-miterlimit:4;stroke-dasharray:none">
        <path d="m 12,2 a 2,2 0 0 1 1.386,3.442 c 0.646,0.28 1.226,0.62 1.74,1.017 l -3.833,3.834 -0.083,0.094 a 1,1 0 0 0 1.403,1.403 l 0.094,-0.083 3.814,-3.813 C 17.498,9.244 18,10.964 18,13 c 0,1.913 -1.178,3.722 -3.089,3.973 l -0.2,0.02 L 14.5,17 h -5 C 7.374,17 6,15.076 6,13 6,9.32 7.57,6.745 10.613,5.44 A 2,2 0 0 1 12,2 Z" stroke-width="0" fill="currentColor" id="path4" style="fill: var(--color-piece-fill-black);fill-opacity:1;stroke:var(--color-piece-stroke-black);stroke-opacity:1;stroke-width:var(--piece-stroke-width);stroke-miterlimit:4;stroke-dasharray:none" />
        <path d="M 18,18 H 6 a 1,1 0 0 0 -1,1 2,2 0 0 0 2,2 h 10 a 2,2 0 0 0 1.987,-1.768 l 0.011,-0.174 A 1,1 0 0 0 18,18 Z" stroke-width="0" fill="currentColor" id="path8" style="fill: var(--color-piece-fill-black);fill-opacity:1;stroke:var(--color-piece-stroke-black);stroke-opacity:1;stroke-width:var(--piece-stroke-width);stroke-miterlimit:4;stroke-dasharray:none" />
      </g>
    </symbol>
    <symbol viewBox="0 0 24 24" stroke-width="2" stroke="currentColor" fill="none" stroke-linecap="round" stroke-linejoin="round" id="tabler-pawn-black"
      xmlns="http://www.w3.org/2000/svg"
      xmlns:svg="http://www.w3.org/2000/svg">
      <defs id="defs12" />
      <path stroke="none" d="M0 0h24v24H0z" fill="none" id="path2" />
      <g id="g831" transform="matrix(1.0526315,0,0,1.0526315,-0.63142959,-0.10526228)">
        <g id="g835" style="fill:var(--color-piece-fill-black);fill-opacity:1;stroke-width:var(--piece-stroke-width);stroke-miterlimit:4;stroke-dasharray:none;stroke:var(--color-piece-stroke-black);stroke-opacity:1">
          <path d="m 12,2 a 4,4 0 0 1 4,4 5.03,5.03 0 0 1 -0.438,2.001 L 16,8 a 1,1 0 0 1 0.117,1.993 L 16,10 h -1.263 l 1.24,5.79 A 1,1 0 0 1 15.23,16.974 L 15.117,16.994 15,17 H 9 A 1,1 0 0 1 8.004,15.907 L 8.022,15.79 9.262,10 H 8 A 1,1 0 0 1 7.883,8.007 L 8,8 H 8.438 A 5.154,5.154 0 0 1 8.026,6.475 L 8.006,6.216 8,6 a 4,4 0 0 1 4,-4 z" stroke-width="0" fill="currentColor" id="path4" style="fill:var(--color-piece-fill-black);fill-opacity:1;stroke-width:var(--piece-stroke-width);stroke-miterlimit:4;stroke-dasharray:none;stroke:var(--color-piece-stroke-black);stroke-opacity:1" />
          <path d="M 18,18 H 6 a 1,1 0 0 0 -1,1 2,2 0 0 0 2,2 h 10 a 2,2 0 0 0 1.987,-1.768 l 0.011,-0.174 A 1,1 0 0 0 18,18 Z" stroke-width="0" fill="currentColor" id="path6" style="fill:var(--color-piece-fill-black);fill-opacity:1;stroke-width:var(--piece-stroke-width);stroke-miterlimit:4;stroke-dasharray:none;stroke:var(--color-piece-stroke-black);stroke-opacity:1" />
        </g>
      </g>
    </symbol>
    <symbol viewBox="0 0 24 24" stroke-width="2" stroke="currentColor" fill="none" stroke-linecap="round" stroke-linejoin="round" id="tabler-king-black"
      xmlns="http://www.w3.org/2000/svg"
      xmlns:svg="http://www.w3.org/2000/svg">
      <defs id="defs12" />
      <path stroke="none" d="M0 0h24v24H0z" fill="none" id="path2" />
      <g id="g831" transform="matrix(1.0526315,0,0,1.0526315,-0.63001343,-0.10526228)" style="fill:var(--color-piece-fill-black);fill-opacity:1;stroke-width:var(--piece-stroke-width);stroke-miterlimit:4;stroke-dasharray:none;stroke:var(--color-piece-stroke-black);stroke-opacity:1">
        <path d="m 12,2 a 1,1 0 0 1 0.993,0.883 L 13,3 v 2 h 2 a 1,1 0 0 1 0.117,1.993 L 15,7 H 13 V 8.758 A 4.49,4.49 0 0 1 15.033,8.024 L 15.273,8.006 15.5,8 a 4.5,4.5 0 0 1 4.5,4.5 4.504,4.504 0 0 1 -4.064,4.478 L 15.719,16.994 15.5,17 h -7 A 4.5,4.5 0 1 1 11.001,8.759 L 11,7 H 9 A 1,1 0 0 1 8.883,5.007 L 9,5 h 2 V 3 a 1,1 0 0 1 1,-1 z" stroke-width="0" fill="currentColor" id="path4" style="fill:var(--color-piece-fill-black);fill-opacity:1;stroke-width:var(--piece-stroke-width);stroke-miterlimit:4;stroke-dasharray:none;stroke:var(--color-piece-stroke-black);stroke-opacity:1" />
        <path d="M 18,18 H 6 a 1,1 0 0 0 -1,1 2,2 0 0 0 2,2 h 10 a 2,2 0 0 0 1.987,-1.768 l 0.011,-0.174 A 1,1 0 0 0 18,18 Z" stroke-width="0" fill="currentColor" id="path6" style="fill:var(--color-piece-fill-black);fill-opacity:1;stroke-width:var(--piece-stroke-width);stroke-miterlimit:4;stroke-dasharray:none;stroke:var(--color-piece-stroke-black);stroke-opacity:1" />
      </g>
    </symbol>
    <symbol viewBox="0 0 24 24" stroke-width="2" stroke="currentColor" fill="none" stroke-linecap="round" stroke-linejoin="round" id="tabler-knight-black"
      xmlns="http://www.w3.org/2000/svg"
      xmlns:svg="http://www.w3.org/2000/svg">
      <defs id="defs12" />
      <path stroke="none" d="M0 0h24v24H0z" fill="none" id="path2" />
      <g id="g831" transform="matrix(1.0518565,0,0,1.0518565,-0.6221297,-0.08898679)" style="fill:var(--color-piece-fill-black);fill-opacity:1;stroke-width:var(--piece-stroke-width);stroke-miterlimit:4;stroke-dasharray:none;stroke:var(--color-piece-stroke-black);stroke-opacity:1">
        <path d="M 8.959,1.99 8.812,2.018 8.697,2.047 A 1,1 0 0 0 8.051,3.317 L 8.8,5.562 5.985,7.297 A 2,2 0 0 0 5.33,10.048 l 0.089,0.133 A 2,2 0 0 0 7.033,11 L 8.596,10.999 6.982,15.673 A 1,1 0 0 0 7.927,17 h 7.961 a 1,1 0 0 0 1,-0.978 l 0.112,-5 C 17,7.195 15.445,4.144 12.33,3.056 L 9.931,2.226 9.556,2.105 9.298,2.031 9.163,2 9.062,1.987 9.007,1.986 8.959,1.989 Z" stroke-width="0" fill="currentColor" id="path4" style="fill:var(--color-piece-fill-black);fill-opacity:1;stroke-width:var(--piece-stroke-width);stroke-miterlimit:4;stroke-dasharray:none;stroke:var(--color-piece-stroke-black);stroke-opacity:1" />
        <path d="M 18,18 H 6 a 1,1 0 0 0 -1,1 2,2 0 0 0 2,2 h 10 a 2,2 0 0 0 1.987,-1.768 l 0.011,-0.174 A 1,1 0 0 0 18,18 Z" stroke-width="0" fill="currentColor" id="path6" style="fill:var(--color-piece-fill-black);fill-opacity:1;stroke-width:var(--piece-stroke-width);stroke-miterlimit:4;stroke-dasharray:none;stroke:var(--color-piece-stroke-black);stroke-opacity:1" />
      </g>
    </symbol>
    <symbol viewBox="0 0 24 24" stroke-width="2" stroke="currentColor" fill="none" stroke-linecap="round" stroke-linejoin="round" id="tabler-queen-black"
      xmlns="http://www.w3.org/2000/svg"
      xmlns:svg="http://www.w3.org/2000/svg">
      <defs id="defs12" />
      <path stroke="none" d="M0 0h24v24H0z" fill="none" id="path2" />
      <g id="g831" transform="matrix(1.0526315,0,0,1.0526315,-0.63440944,-0.10526228)" style="fill:var(--color-piece-fill-black);fill-opacity:1;stroke-width:var(--piece-stroke-width);stroke-miterlimit:4;stroke-dasharray:none;stroke:var(--color-piece-stroke-black);stroke-opacity:1">
        <path d="m 12,2 a 2,2 0 0 1 1.572,3.236 l 0.793,1.983 1.702,-1.702 A 2.003,2.003 0 0 1 18,3 2,2 0 0 1 18.674,6.884 l -1.69,9.295 a 1,1 0 0 1 -0.865,0.814 L 16,17 H 8 A 1,1 0 0 1 7.044,16.295 L 7.016,16.179 5.326,6.884 A 2,2 0 1 1 7.933,5.517 L 9.634,7.219 10.428,5.236 A 2,2 0 0 1 12,2 Z" stroke-width="0" fill="currentColor" id="path4" style="fill:var(--color-piece-fill-black);fill-opacity:1;stroke-width:var(--piece-stroke-width);stroke-miterlimit:4;stroke-dasharray:none;stroke:var(--color-piece-stroke-black);stroke-opacity:1" />
        <path d="M 18,18 H 6 a 1,1 0 0 0 -1,1 2,2 0 0 0 2,2 h 10 a 2,2 0 0 0 1.987,-1.768 l 0.011,-0.174 A 1,1 0 0 0 18,18 Z" stroke-width="0" fill="currentColor" id="path6" style="fill:var(--color-piece-fill-black);fill-opacity:1;stroke-width:var(--piece-stroke-width);stroke-miterlimit:4;stroke-dasharray:none;stroke:var(--color-piece-stroke-black);stroke-opacity:1" />
      </g>
    </symbol>
    <symbol viewBox="0 0 24 24" stroke-width="2" stroke="currentColor" fill="none" stroke-linecap="round" stroke-linejoin="round" id="tabler-rook-black"
      xmlns="http://www.w3.org/2000/svg"
      xmlns:svg="http://www.w3.org/2000/svg">
      <defs id="defs12" />
      <path stroke="none" d="M0 0h24v24H0z" fill="none" id="path2" />
      <g id="g1052">
        <g id="g831" transform="matrix(1.1109807,0,0,1.1109807,-1.3311462,-1.3305952)" style="fill:var(--color-piece-fill-black);fill-opacity:1;stroke-width:var(--piece-stroke-width);stroke-miterlimit:4;stroke-dasharray:none;stroke:var(--color-piece-stroke-black);stroke-opacity:1">
          <path d="m 14,3 a 1,1 0 0 1 0.993,0.883 L 15,4 v 2 h 1.652 L 17.014,3.836 A 1,1 0 0 1 18.048,3 l 0.116,0.013 A 1,1 0 0 1 19,4.048 l -0.013,0.116 -0.5,3 A 1,1 0 0 1 17.622,7.993 L 17.5,8 h -1.383 l 0.877,7.89 a 1,1 0 0 1 -0.877,1.103 L 16,17 H 8 A 1,1 0 0 1 7,16.007 L 7.006,15.89 7.883,8 H 6.5 A 1,1 0 0 1 5.54,7.282 l -0.026,-0.118 -0.5,-3 A 1,1 0 0 1 6.961,3.722 L 6.986,3.836 7.347,6 H 9 V 4 A 1,1 0 0 1 10.993,3.883 L 11,4 v 2 h 2 V 4 a 1,1 0 0 1 1,-1 z" stroke-width="0" fill="currentColor" id="path4" style="fill:var(--color-piece-fill-black);fill-opacity:1;stroke-width:var(--piece-stroke-width);stroke-miterlimit:4;stroke-dasharray:none;stroke:var(--color-piece-stroke-black);stroke-opacity:1" />
          <path d="M 18,18 H 6 a 1,1 0 0 0 -1,1 2,2 0 0 0 2,2 h 10 a 2,2 0 0 0 1.987,-1.768 l 0.011,-0.174 A 1,1 0 0 0 18,18 Z" stroke-width="0" fill="currentColor" id="path6" style="fill:var(--color-piece-fill-black);fill-opacity:1;stroke-width:var(--piece-stroke-width);stroke-miterlimit:4;stroke-dasharray:none;stroke:var(--color-piece-stroke-black);stroke-opacity:1" />
        </g>
      </g>
    </symbol>
    <!-- Game icons licensed under CC BY 3.0 - https://creativecommons.org/licenses/by/3.0/ -->
    <!-- https://github.com/game-icons/icons -->
    <symbol viewBox="0 0 24 24" version="1.1" id="game-bishop-white"
      xmlns="http://www.w3.org/2000/svg"
      xmlns:svg="http://www.w3.org/2000/svg">
      <defs id="defs1252" />
      <path fill="var(--color-piece-fill-white)" d="M 18.872581,22.217116 H 4.9977758 v -2.77496 H 18.872581 Z M 15.012609,13.845982 H 8.857747 v 0.816302 h 6.154862 z m 0.544818,-3.59311 a 9.24987,9.24987 0 0 1 -0.434283,2.853123 H 8.74721 A 9.24987,9.24987 0 0 1 8.312929,10.252872 c 0,-2.7328733 1.10166,-5.0411788 2.608926,-5.7659071 a 1.5419533,1.5419533 0 1 1 2.026647,0 c 1.507266,0.7265778 2.608925,3.0330338 2.608925,5.7659071 M 13.195472,7.9908176 h -0.8903 V 6.8845317 h -0.739988 v 1.1062859 h -0.890763 v 0.7399875 h 0.890763 v 2.3836909 h 0.739988 V 8.7308051 h 0.8903 z m 1.764414,8.3567934 V 15.402274 H 8.910473 v 0.945337 H 4.4090212 v 0.0051 l 2.2874929,2.287494 h 3.7961469 l 1.440666,-1.664975 1.440669,1.664975 h 3.812795 L 19.446998,16.38 l 0.01248,-0.03191 h -4.499601 z" id="path1246" style="stroke-width:var(--piece-stroke-width);stroke:var(--color-piece-stroke-white);stroke-opacity:1" />
    </symbol>
    <symbol viewBox="0 0 24 24" version="1.1" id="game-king-white"
      xmlns="http://www.w3.org/2000/svg"
      xmlns:svg="http://www.w3.org/2000/svg">
      <defs id="defs8" />
      <path fill="var(--color-piece-fill-white)" d="M 19.458905,22.5 H 4.540595 v -2.98366 h 14.91831 z m -0.5122,-5.32733 H 5.052795 a 4.8176178,4.8176178 0 0 1 0.33069,1.54753 h 13.23253 a 4.8176178,4.8176178 0 0 1 0.33069,-1.54753 M 11.999745,5.18532 a 1.7782619,1.7782619 0 0 0 -1.77826,1.77826 c 0,2.49434 1.77826,4.93995 1.77826,4.93995 0,0 1.77827,-2.44561 1.77827,-4.93995 a 1.7782619,1.7782619 0 0 0 -1.77827,-1.77826 m 0.39783,-0.76481 V 3.45877 h 0.913 V 2.66313 h -0.913 V 1.5 h -0.79565 v 1.16313 h -0.913 v 0.79564 h 0.913 V 4.4225 a 2.5808667,2.5808667 0 0 1 0.79565,-0.002 m 4.05976,2.55401 a 4.9101113,4.9101113 0 0 0 -1.89611,0.37843 c -0.16062,2.57341 -1.84341,4.91558 -1.9185,5.01901 l -0.24515,0.33616 v 3.66792 h 6.96187 c 0.82399,-1.30038 2.0279,-2.10895 2.0279,-4.4755 a 4.9295051,4.9295051 0 0 0 -4.93001,-4.92652 z m -7.01956,0.37843 a 4.9309969,4.9309969 0 0 0 -6.82512,4.55058 c 0,2.36455 1.20391,3.17362 2.02789,4.47549 h 6.96138 v -3.6709 l -0.24565,-0.33765 c -0.0751,-0.10194 -1.75738,-2.44411 -1.9185,-5.01752" id="path2" style="stroke-width:var(--piece-stroke-width);stroke:var(--color-piece-stroke-white);stroke-opacity:1" />
    </symbol>
    <symbol viewBox="0 0 24 24" version="1.1" id="game-knight-white"
      xmlns="http://www.w3.org/2000/svg"
      xmlns:svg="http://www.w3.org/2000/svg">
      <defs id="defs8" />
      <path fill="var(--color-piece-fill-white)" d="M 1.5000002,22.038071 H 17.638124 V 18.810448 H 1.5000002 Z M 14.076439,3.3555054 14.826325,3.7530418 c 1.714944,-2.3464809 3.299707,-1.713327 3.299707,-1.713327 l -1.16302,2.8510614 1.917209,1.0220862 0.154387,1.7751903 L 22.5,13.538127 20.157283,15.118043 c 0,0 -1.442748,-1.957548 -2.132922,-2.348632 -0.573441,-0.322767 -2.217378,-0.551386 -3.021594,-0.645524 L 11.369538,7.9866136 10.724012,8.554673 12.72245,10.830686 c -0.007,0.0097 -0.01345,0.01989 -0.02044,0.03069 -1.92474,3.129183 1.237256,5.68546 3.684332,7.088945 H 2.7550079 C 3.2316204,0.95579404 14.076439,3.3555341 14.076439,3.3555341" id="path2" style="stroke-width:var(--piece-stroke-width);stroke:var(--color-piece-stroke-white);stroke-opacity:1" />
    </symbol>
    <symbol viewBox="0 0 24 24" version="1.1" id="game-pawn-white"
      xmlns="http://www.w3.org/2000/svg"
      xmlns:svg="http://www.w3.org/2000/svg">
      <defs id="defs1944" />
      <path fill="var(--color-piece-fill-white)" d="M 15.46702,4.96702 A 3.467022,3.467022 0 1 1 12,1.5 3.467022,3.467022 0 0 1 15.46702,4.96702 m 5.80805,13.82295 H 2.72493 V 22.5 H 21.27507 Z M 13.62809,9.1136 A 4.4402862,4.4402862 0 0 1 10.40345,9.126 c -0.0451,3.64263 -3.85534,7.05277 -5.98242,8.67405 H 19.59938 C 17.49146,16.17197 13.69796,12.74328 13.62809,9.11364" id="path1938" style="stroke-width:var(--piece-stroke-width);stroke:var(--color-piece-stroke-white);stroke-opacity:1" />
    </symbol>
    <symbol viewBox="0 0 24 24" version="1.1" id="game-queen-white"
      xmlns="http://www.w3.org/2000/svg"
      xmlns:svg="http://www.w3.org/2000/svg">
      <defs id="defs8" />
      <path fill="var(--color-piece-fill-white)" d="M 22.499999,6.973943 A 1.1850073,1.1850073 0 0 1 20.845254,8.06415 L 17.89269,15.186514 H 6.0938095 L 3.1436155,8.067468 a 1.1850073,1.1850073 0 1 1 0.461205,-0.345549 l 4.123825,3.374905 0.991614,-5.991401 a 1.1850073,1.1850073 0 1 1 0.696785,-0.08769 l 2.5743095,5.545831 2.579524,-5.560051 a 1.1850073,1.1850073 0 1 1 0.691096,0.09859 l 0.992088,5.992351 4.13615,-3.379647 A 1.1850073,1.1850073 0 1 1 22.499999,6.973941 M 19.103294,18.409264 H 4.8832065 v 2.84402 H 19.103294 Z m -1.315358,-2.46482 H 6.2118365 v 1.70641 H 17.787936 Z" id="path2" style="stroke-width:var(--piece-stroke-width);stroke:var(--color-piece-stroke-white);stroke-opacity:1" />
    </symbol>
    <symbol viewBox="0 0 24 24" version="1.1" id="game-rook-white"
      xmlns="http://www.w3.org/2000/svg"
      xmlns:svg="http://www.w3.org/2000/svg">
      <defs id="defs8" />
      <path fill="var(--color-piece-fill-white)" d="M 20.007115,22.5 H 3.992885 v -3.20285 h 16.01423 z M 16.982035,4.840036 h -2.67171 V 1.5 H 9.912285 V 4.840036 H 7.017975 V 1.5 h -2.89484 v 6.067794 h 15.75374 V 1.5 h -2.89484 z m 1.24644,3.58879 H 5.771535 V 18.44306 h 12.45694 z" id="path2" style="stroke-width:var(--piece-stroke-width);stroke:var(--color-piece-stroke-white);stroke-opacity:1" />
    </symbol>

    <symbol viewBox="0 0 24 24" version="1.1" id="game-bishop-black"
      xmlns="http://www.w3.org/2000/svg"
      xmlns:svg="http://www.w3.org/2000/svg">
      <defs id="defs1252" />
      <path fill="var(--color-piece-fill-black)" d="M 18.872581,22.217116 H 4.9977758 v -2.77496 H 18.872581 Z M 15.012609,13.845982 H 8.857747 v 0.816302 h 6.154862 z m 0.544818,-3.59311 a 9.24987,9.24987 0 0 1 -0.434283,2.853123 H 8.74721 A 9.24987,9.24987 0 0 1 8.312929,10.252872 c 0,-2.7328733 1.10166,-5.0411788 2.608926,-5.7659071 a 1.5419533,1.5419533 0 1 1 2.026647,0 c 1.507266,0.7265778 2.608925,3.0330338 2.608925,5.7659071 M 13.195472,7.9908176 h -0.8903 V 6.8845317 h -0.739988 v 1.1062859 h -0.890763 v 0.7399875 h 0.890763 v 2.3836909 h 0.739988 V 8.7308051 h 0.8903 z m 1.764414,8.3567934 V 15.402274 H 8.910473 v 0.945337 H 4.4090212 v 0.0051 l 2.2874929,2.287494 h 3.7961469 l 1.440666,-1.664975 1.440669,1.664975 h 3.812795 L 19.446998,16.38 l 0.01248,-0.03191 h -4.499601 z" id="path1246" style="stroke-width:var(--piece-stroke-width);stroke:var(--color-piece-stroke-black);stroke-opacity:1" />
    </symbol>
    <symbol viewBox="0 0 24 24" version="1.1" id="game-king-black"
      xmlns="http://www.w3.org/2000/svg"
      xmlns:svg="http://www.w3.org/2000/svg">
      <defs id="defs8" />
      <path fill="var(--color-piece-fill-black)" d="M 19.458905,22.5 H 4.540595 v -2.98366 h 14.91831 z m -0.5122,-5.32733 H 5.052795 a 4.8176178,4.8176178 0 0 1 0.33069,1.54753 h 13.23253 a 4.8176178,4.8176178 0 0 1 0.33069,-1.54753 M 11.999745,5.18532 a 1.7782619,1.7782619 0 0 0 -1.77826,1.77826 c 0,2.49434 1.77826,4.93995 1.77826,4.93995 0,0 1.77827,-2.44561 1.77827,-4.93995 a 1.7782619,1.7782619 0 0 0 -1.77827,-1.77826 m 0.39783,-0.76481 V 3.45877 h 0.913 V 2.66313 h -0.913 V 1.5 h -0.79565 v 1.16313 h -0.913 v 0.79564 h 0.913 V 4.4225 a 2.5808667,2.5808667 0 0 1 0.79565,-0.002 m 4.05976,2.55401 a 4.9101113,4.9101113 0 0 0 -1.89611,0.37843 c -0.16062,2.57341 -1.84341,4.91558 -1.9185,5.01901 l -0.24515,0.33616 v 3.66792 h 6.96187 c 0.82399,-1.30038 2.0279,-2.10895 2.0279,-4.4755 a 4.9295051,4.9295051 0 0 0 -4.93001,-4.92652 z m -7.01956,0.37843 a 4.9309969,4.9309969 0 0 0 -6.82512,4.55058 c 0,2.36455 1.20391,3.17362 2.02789,4.47549 h 6.96138 v -3.6709 l -0.24565,-0.33765 c -0.0751,-0.10194 -1.75738,-2.44411 -1.9185,-5.01752" id="path2" style="stroke-width:var(--piece-stroke-width);stroke:var(--color-piece-stroke-black);stroke-opacity:1" />
    </symbol>
    <symbol viewBox="0 0 24 24" version="1.1" id="game-knight-black"
      xmlns="http://www.w3.org/2000/svg"
      xmlns:svg="http://www.w3.org/2000/svg">
      <defs id="defs8" />
      <path fill="var(--color-piece-fill-black)" d="M 1.5000002,22.038071 H 17.638124 V 18.810448 H 1.5000002 Z M 14.076439,3.3555054 14.826325,3.7530418 c 1.714944,-2.3464809 3.299707,-1.713327 3.299707,-1.713327 l -1.16302,2.8510614 1.917209,1.0220862 0.154387,1.7751903 L 22.5,13.538127 20.157283,15.118043 c 0,0 -1.442748,-1.957548 -2.132922,-2.348632 -0.573441,-0.322767 -2.217378,-0.551386 -3.021594,-0.645524 L 11.369538,7.9866136 10.724012,8.554673 12.72245,10.830686 c -0.007,0.0097 -0.01345,0.01989 -0.02044,0.03069 -1.92474,3.129183 1.237256,5.68546 3.684332,7.088945 H 2.7550079 C 3.2316204,0.95579404 14.076439,3.3555341 14.076439,3.3555341" id="path2" style="stroke-width:var(--piece-stroke-width);stroke:var(--color-piece-stroke-black);stroke-opacity:1" />
    </symbol>
    <symbol viewBox="0 0 24 24" version="1.1" id="game-pawn-black"
      xmlns="http://www.w3.org/2000/svg"
      xmlns:svg="http://www.w3.org/2000/svg">
      <defs id="defs1944" />
      <path fill="var(--color-piece-fill-black)" d="M 15.46702,4.96702 A 3.467022,3.467022 0 1 1 12,1.5 3.467022,3.467022 0 0 1 15.46702,4.96702 m 5.80805,13.82295 H 2.72493 V 22.5 H 21.27507 Z M 13.62809,9.1136 A 4.4402862,4.4402862 0 0 1 10.40345,9.126 c -0.0451,3.64263 -3.85534,7.05277 -5.98242,8.67405 H 19.59938 C 17.49146,16.17197 13.69796,12.74328 13.62809,9.11364" id="path1938" style="stroke-width:var(--piece-stroke-width);stroke:var(--color-piece-stroke-black);stroke-opacity:1" />
    </symbol>
    <symbol viewBox="0 0 24 24" version="1.1" id="game-queen-black"
      xmlns="http://www.w3.org/2000/svg"
      xmlns:svg="http://www.w3.org/2000/svg">
      <defs id="defs8" />
      <path fill="var(--color-piece-fill-black)" d="M 22.499999,6.973943 A 1.1850073,1.1850073 0 0 1 20.845254,8.06415 L 17.89269,15.186514 H 6.0938095 L 3.1436155,8.067468 a 1.1850073,1.1850073 0 1 1 0.461205,-0.345549 l 4.123825,3.374905 0.991614,-5.991401 a 1.1850073,1.1850073 0 1 1 0.696785,-0.08769 l 2.5743095,5.545831 2.579524,-5.560051 a 1.1850073,1.1850073 0 1 1 0.691096,0.09859 l 0.992088,5.992351 4.13615,-3.379647 A 1.1850073,1.1850073 0 1 1 22.499999,6.973941 M 19.103294,18.409264 H 4.8832065 v 2.84402 H 19.103294 Z m -1.315358,-2.46482 H 6.2118365 v 1.70641 H 17.787936 Z" id="path2" style="stroke-width:var(--piece-stroke-width);stroke:var(--color-piece-stroke-black);stroke-opacity:1" />
    </symbol>
    <symbol viewBox="0 0 24 24" version="1.1" id="game-rook-black"
      xmlns="http://www.w3.org/2000/svg"
      xmlns:svg="http://www.w3.org/2000/svg">
      <defs id="defs8" />
      <path fill="var(--color-piece-fill-black)" d="M 20.007115,22.5 H 3.992885 v -3.20285 h 16.01423 z M 16.982035,4.840036 h -2.67171 V 1.5 H 9.912285 V 4.840036 H 7.017975 V 1.5 h -2.89484 v 6.067794 h 15.75374 V 1.5 h -2.89484 z m 1.24644,3.58879 H 5.771535 V 18.44306 h 12.45694 z" id="path2" style="stroke-width:var(--piece-stroke-width);stroke:var(--color-piece-stroke-black);stroke-opacity:1" />
    </symbol>
  </defs>
</svg>