<?xml version="1.0" encoding="utf-8"?>
<!-- Tabler icons licensed under MIT license - https://github.com/tabler/tabler-icons/blob/master/LICENSE -->
<!-- https://github.com/tabler/tabler-icons -->
<svg width="0" height="0" style="display: none">
  <defs>
    <symbol viewBox="0 0 24 24" stroke-width="2" stroke="currentColor" fill="none" stroke-linecap="round" stroke-linejoin="round" id="bishop-white"
      xmlns="http://www.w3.org/2000/svg"
      xmlns:svg="http://www.w3.org/2000/svg">
      <defs id="defs14" />
      <path stroke="none" d="M0 0h24v24H0z" fill="none" id="path2" />
      <path d="M12 5v1" stroke-width="0" fill="currentColor" id="path6" />
      <g id="g57" transform="matrix(1.0526315,0,0,1.0526315,-0.63142959,-0.10526228)" style="fill:var(--color-piece-fill-white);fill-opacity:1;stroke:var(--color-piece-stroke-white);stroke-opacity:1;stroke-width:var(--piece-stroke-width);stroke-miterlimit:4;stroke-dasharray:none">
        <path d="m 12,2 a 2,2 0 0 1 1.386,3.442 c 0.646,0.28 1.226,0.62 1.74,1.017 l -3.833,3.834 -0.083,0.094 a 1,1 0 0 0 1.403,1.403 l 0.094,-0.083 3.814,-3.813 C 17.498,9.244 18,10.964 18,13 c 0,1.913 -1.178,3.722 -3.089,3.973 l -0.2,0.02 L 14.5,17 h -5 C 7.374,17 6,15.076 6,13 6,9.32 7.57,6.745 10.613,5.44 A 2,2 0 0 1 12,2 Z" stroke-width="0" fill="currentColor" id="path4" style="fill:var(--color-piece-fill-white);fill-opacity:1;stroke:var(--color-piece-stroke-white);stroke-opacity:1;stroke-width:var(--piece-stroke-width);stroke-miterlimit:4;stroke-dasharray:none" />
        <path d="M 18,18 H 6 a 1,1 0 0 0 -1,1 2,2 0 0 0 2,2 h 10 a 2,2 0 0 0 1.987,-1.768 l 0.011,-0.174 A 1,1 0 0 0 18,18 Z" stroke-width="0" fill="currentColor" id="path8" style="fill:var(--color-piece-fill-white);fill-opacity:1;stroke:var(--color-piece-stroke-white);stroke-opacity:1;stroke-width:var(--piece-stroke-width);stroke-miterlimit:4;stroke-dasharray:none" />
      </g>
    </symbol>
    <symbol viewBox="0 0 24 24" stroke-width="2" stroke="currentColor" fill="none" stroke-linecap="round" stroke-linejoin="round" id="pawn-white"
      xmlns="http://www.w3.org/2000/svg"
      xmlns:svg="http://www.w3.org/2000/svg">
      <defs id="defs12" />
      <path stroke="none" d="M0 0h24v24H0z" fill="none" id="path2" />
      <g id="g831" transform="matrix(1.0526315,0,0,1.0526315,-0.63142959,-0.10526228)">
        <g id="g835" style="fill:var(--color-piece-fill-white);fill-opacity:1;stroke-width:var(--piece-stroke-width);stroke-miterlimit:4;stroke-dasharray:none;stroke:var(--color-piece-stroke-white);stroke-opacity:1">
          <path d="m 12,2 a 4,4 0 0 1 4,4 5.03,5.03 0 0 1 -0.438,2.001 L 16,8 a 1,1 0 0 1 0.117,1.993 L 16,10 h -1.263 l 1.24,5.79 A 1,1 0 0 1 15.23,16.974 L 15.117,16.994 15,17 H 9 A 1,1 0 0 1 8.004,15.907 L 8.022,15.79 9.262,10 H 8 A 1,1 0 0 1 7.883,8.007 L 8,8 H 8.438 A 5.154,5.154 0 0 1 8.026,6.475 L 8.006,6.216 8,6 a 4,4 0 0 1 4,-4 z" stroke-width="0" fill="currentColor" id="path4" style="fill:var(--color-piece-fill-white);fill-opacity:1;stroke-width:var(--piece-stroke-width);stroke-miterlimit:4;stroke-dasharray:none;stroke:var(--color-piece-stroke-white);stroke-opacity:1" />
          <path d="M 18,18 H 6 a 1,1 0 0 0 -1,1 2,2 0 0 0 2,2 h 10 a 2,2 0 0 0 1.987,-1.768 l 0.011,-0.174 A 1,1 0 0 0 18,18 Z" stroke-width="0" fill="currentColor" id="path6" style="fill:var(--color-piece-fill-white);fill-opacity:1;stroke-width:var(--piece-stroke-width);stroke-miterlimit:4;stroke-dasharray:none;stroke:var(--color-piece-stroke-white);stroke-opacity:1" />
        </g>
      </g>
    </symbol>
    <symbol viewBox="0 0 24 24" stroke-width="2" stroke="currentColor" fill="none" stroke-linecap="round" stroke-linejoin="round" id="king-white"
      xmlns="http://www.w3.org/2000/svg"
      xmlns:svg="http://www.w3.org/2000/svg">
      <defs id="defs12" />
      <path stroke="none" d="M0 0h24v24H0z" fill="none" id="path2" />
      <g id="g831" transform="matrix(1.0526315,0,0,1.0526315,-0.63001343,-0.10526228)" style="fill:var(--color-piece-fill-white);fill-opacity:1;stroke-width:var(--piece-stroke-width);stroke-miterlimit:4;stroke-dasharray:none;stroke:var(--color-piece-stroke-white);stroke-opacity:1">
        <path d="m 12,2 a 1,1 0 0 1 0.993,0.883 L 13,3 v 2 h 2 a 1,1 0 0 1 0.117,1.993 L 15,7 H 13 V 8.758 A 4.49,4.49 0 0 1 15.033,8.024 L 15.273,8.006 15.5,8 a 4.5,4.5 0 0 1 4.5,4.5 4.504,4.504 0 0 1 -4.064,4.478 L 15.719,16.994 15.5,17 h -7 A 4.5,4.5 0 1 1 11.001,8.759 L 11,7 H 9 A 1,1 0 0 1 8.883,5.007 L 9,5 h 2 V 3 a 1,1 0 0 1 1,-1 z" stroke-width="0" fill="currentColor" id="path4" style="fill:var(--color-piece-fill-white);fill-opacity:1;stroke-width:var(--piece-stroke-width);stroke-miterlimit:4;stroke-dasharray:none;stroke:var(--color-piece-stroke-white);stroke-opacity:1" />
        <path d="M 18,18 H 6 a 1,1 0 0 0 -1,1 2,2 0 0 0 2,2 h 10 a 2,2 0 0 0 1.987,-1.768 l 0.011,-0.174 A 1,1 0 0 0 18,18 Z" stroke-width="0" fill="currentColor" id="path6" style="fill:var(--color-piece-fill-white);fill-opacity:1;stroke-width:var(--piece-stroke-width);stroke-miterlimit:4;stroke-dasharray:none;stroke:var(--color-piece-stroke-white);stroke-opacity:1" />
      </g>
    </symbol>
    <symbol viewBox="0 0 24 24" stroke-width="2" stroke="currentColor" fill="none" stroke-linecap="round" stroke-linejoin="round" version="1.1" id="knight-white"
      xmlns="http://www.w3.org/2000/svg"
      xmlns:svg="http://www.w3.org/2000/svg">
      <defs id="defs12" />
      <path stroke="none" d="M0 0h24v24H0z" fill="none" id="path2" />
      <g id="g831" transform="matrix(1.0518565,0,0,1.0518565,-0.6221297,-0.08898679)" style="fill:var(--color-piece-fill-white);fill-opacity:1;stroke-width:var(--piece-stroke-width);stroke-miterlimit:4;stroke-dasharray:none;stroke:var(--color-piece-stroke-white);stroke-opacity:1">
        <path d="M 8.959,1.99 8.812,2.018 8.697,2.047 A 1,1 0 0 0 8.051,3.317 L 8.8,5.562 5.985,7.297 A 2,2 0 0 0 5.33,10.048 l 0.089,0.133 A 2,2 0 0 0 7.033,11 L 8.596,10.999 6.982,15.673 A 1,1 0 0 0 7.927,17 h 7.961 a 1,1 0 0 0 1,-0.978 l 0.112,-5 C 17,7.195 15.445,4.144 12.33,3.056 L 9.931,2.226 9.556,2.105 9.298,2.031 9.163,2 9.062,1.987 9.007,1.986 8.959,1.989 Z" stroke-width="0" fill="currentColor" id="path4" style="fill:var(--color-piece-fill-white);fill-opacity:1;stroke-width:var(--piece-stroke-width);stroke-miterlimit:4;stroke-dasharray:none;stroke:var(--color-piece-stroke-white);stroke-opacity:1" />
        <path d="M 18,18 H 6 a 1,1 0 0 0 -1,1 2,2 0 0 0 2,2 h 10 a 2,2 0 0 0 1.987,-1.768 l 0.011,-0.174 A 1,1 0 0 0 18,18 Z" stroke-width="0" fill="currentColor" id="path6" style="fill:var(--color-piece-fill-white);fill-opacity:1;stroke-width:var(--piece-stroke-width);stroke-miterlimit:4;stroke-dasharray:none;stroke:var(--color-piece-stroke-white);stroke-opacity:1" />
      </g>
    </symbol>
    <symbol viewBox="0 0 24 24" stroke-width="2" stroke="currentColor" fill="none" stroke-linecap="round" stroke-linejoin="round" id="queen-white"
      xmlns="http://www.w3.org/2000/svg"
      xmlns:svg="http://www.w3.org/2000/svg">
      <defs id="defs12" />
      <path stroke="none" d="M0 0h24v24H0z" fill="none" id="path2" />
      <g id="g831" transform="matrix(1.0526315,0,0,1.0526315,-0.63440944,-0.10526228)" style="fill:var(--color-piece-fill-white);fill-opacity:1;stroke-width:var(--piece-stroke-width);stroke-miterlimit:4;stroke-dasharray:none;stroke:var(--color-piece-stroke-white);stroke-opacity:1">
        <path d="m 12,2 a 2,2 0 0 1 1.572,3.236 l 0.793,1.983 1.702,-1.702 A 2.003,2.003 0 0 1 18,3 2,2 0 0 1 18.674,6.884 l -1.69,9.295 a 1,1 0 0 1 -0.865,0.814 L 16,17 H 8 A 1,1 0 0 1 7.044,16.295 L 7.016,16.179 5.326,6.884 A 2,2 0 1 1 7.933,5.517 L 9.634,7.219 10.428,5.236 A 2,2 0 0 1 12,2 Z" stroke-width="0" fill="currentColor" id="path4" style="fill:var(--color-piece-fill-white);fill-opacity:1;stroke-width:var(--piece-stroke-width);stroke-miterlimit:4;stroke-dasharray:none;stroke:var(--color-piece-stroke-white);stroke-opacity:1" />
        <path d="M 18,18 H 6 a 1,1 0 0 0 -1,1 2,2 0 0 0 2,2 h 10 a 2,2 0 0 0 1.987,-1.768 l 0.011,-0.174 A 1,1 0 0 0 18,18 Z" stroke-width="0" fill="currentColor" id="path6" style="fill:var(--color-piece-fill-white);fill-opacity:1;stroke-width:var(--piece-stroke-width);stroke-miterlimit:4;stroke-dasharray:none;stroke:var(--color-piece-stroke-white);stroke-opacity:1" />
      </g>
    </symbol>
    <symbol viewBox="0 0 24 24" stroke-width="2" stroke="currentColor" fill="none" stroke-linecap="round" stroke-linejoin="round" id="rook-white"
      xmlns="http://www.w3.org/2000/svg"
      xmlns:svg="http://www.w3.org/2000/svg">
      <defs id="defs12" />
      <path stroke="none" d="M0 0h24v24H0z" fill="none" id="path2" />
      <g id="g1052">
        <g id="g831" transform="matrix(1.1109807,0,0,1.1109807,-1.3311462,-1.3305952)" style="fill:var(--color-piece-fill-white);fill-opacity:1;stroke-width:var(--piece-stroke-width);stroke-miterlimit:4;stroke-dasharray:none;stroke:var(--color-piece-stroke-white);stroke-opacity:1">
          <path d="m 14,3 a 1,1 0 0 1 0.993,0.883 L 15,4 v 2 h 1.652 L 17.014,3.836 A 1,1 0 0 1 18.048,3 l 0.116,0.013 A 1,1 0 0 1 19,4.048 l -0.013,0.116 -0.5,3 A 1,1 0 0 1 17.622,7.993 L 17.5,8 h -1.383 l 0.877,7.89 a 1,1 0 0 1 -0.877,1.103 L 16,17 H 8 A 1,1 0 0 1 7,16.007 L 7.006,15.89 7.883,8 H 6.5 A 1,1 0 0 1 5.54,7.282 l -0.026,-0.118 -0.5,-3 A 1,1 0 0 1 6.961,3.722 L 6.986,3.836 7.347,6 H 9 V 4 A 1,1 0 0 1 10.993,3.883 L 11,4 v 2 h 2 V 4 a 1,1 0 0 1 1,-1 z" stroke-width="0" fill="currentColor" id="path4" style="fill:var(--color-piece-fill-white);fill-opacity:1;stroke-width:var(--piece-stroke-width);stroke-miterlimit:4;stroke-dasharray:none;stroke:var(--color-piece-stroke-white);stroke-opacity:1" />
          <path d="M 18,18 H 6 a 1,1 0 0 0 -1,1 2,2 0 0 0 2,2 h 10 a 2,2 0 0 0 1.987,-1.768 l 0.011,-0.174 A 1,1 0 0 0 18,18 Z" stroke-width="0" fill="currentColor" id="path6" style="fill:var(--color-piece-fill-white);fill-opacity:1;stroke-width:var(--piece-stroke-width);stroke-miterlimit:4;stroke-dasharray:none;stroke:var(--color-piece-stroke-white);stroke-opacity:1" />
        </g>
      </g>
    </symbol>

    <symbol viewBox="0 0 24 24" stroke-width="2" stroke="currentColor" fill="none" stroke-linecap="round" stroke-linejoin="round" id="bishop-black"
      xmlns="http://www.w3.org/2000/svg"
      xmlns:svg="http://www.w3.org/2000/svg">
      <defs id="defs14" />
      <path stroke="none" d="M0 0h24v24H0z" fill="none" id="path2" />
      <path d="M12 5v1" stroke-width="0" fill="currentColor" id="path6" />
      <g id="g57" transform="matrix(1.0526315,0,0,1.0526315,-0.63142959,-0.10526228)" style="fill: var(--color-piece-fill-black);fill-opacity:1;stroke:var(--color-piece-stroke-black);stroke-opacity:1;stroke-width:var(--piece-stroke-width);stroke-miterlimit:4;stroke-dasharray:none">
        <path d="m 12,2 a 2,2 0 0 1 1.386,3.442 c 0.646,0.28 1.226,0.62 1.74,1.017 l -3.833,3.834 -0.083,0.094 a 1,1 0 0 0 1.403,1.403 l 0.094,-0.083 3.814,-3.813 C 17.498,9.244 18,10.964 18,13 c 0,1.913 -1.178,3.722 -3.089,3.973 l -0.2,0.02 L 14.5,17 h -5 C 7.374,17 6,15.076 6,13 6,9.32 7.57,6.745 10.613,5.44 A 2,2 0 0 1 12,2 Z" stroke-width="0" fill="currentColor" id="path4" style="fill: var(--color-piece-fill-black);fill-opacity:1;stroke:var(--color-piece-stroke-black);stroke-opacity:1;stroke-width:var(--piece-stroke-width);stroke-miterlimit:4;stroke-dasharray:none" />
        <path d="M 18,18 H 6 a 1,1 0 0 0 -1,1 2,2 0 0 0 2,2 h 10 a 2,2 0 0 0 1.987,-1.768 l 0.011,-0.174 A 1,1 0 0 0 18,18 Z" stroke-width="0" fill="currentColor" id="path8" style="fill: var(--color-piece-fill-black);fill-opacity:1;stroke:var(--color-piece-stroke-black);stroke-opacity:1;stroke-width:var(--piece-stroke-width);stroke-miterlimit:4;stroke-dasharray:none" />
      </g>
    </symbol>
    <symbol viewBox="0 0 24 24" stroke-width="2" stroke="currentColor" fill="none" stroke-linecap="round" stroke-linejoin="round" id="pawn-black"
      xmlns="http://www.w3.org/2000/svg"
      xmlns:svg="http://www.w3.org/2000/svg">
      <defs id="defs12" />
      <path stroke="none" d="M0 0h24v24H0z" fill="none" id="path2" />
      <g id="g831" transform="matrix(1.0526315,0,0,1.0526315,-0.63142959,-0.10526228)">
        <g id="g835" style="fill:var(--color-piece-fill-black);fill-opacity:1;stroke-width:var(--piece-stroke-width);stroke-miterlimit:4;stroke-dasharray:none;stroke:var(--color-piece-stroke-black);stroke-opacity:1">
          <path d="m 12,2 a 4,4 0 0 1 4,4 5.03,5.03 0 0 1 -0.438,2.001 L 16,8 a 1,1 0 0 1 0.117,1.993 L 16,10 h -1.263 l 1.24,5.79 A 1,1 0 0 1 15.23,16.974 L 15.117,16.994 15,17 H 9 A 1,1 0 0 1 8.004,15.907 L 8.022,15.79 9.262,10 H 8 A 1,1 0 0 1 7.883,8.007 L 8,8 H 8.438 A 5.154,5.154 0 0 1 8.026,6.475 L 8.006,6.216 8,6 a 4,4 0 0 1 4,-4 z" stroke-width="0" fill="currentColor" id="path4" style="fill:var(--color-piece-fill-black);fill-opacity:1;stroke-width:var(--piece-stroke-width);stroke-miterlimit:4;stroke-dasharray:none;stroke:var(--color-piece-stroke-black);stroke-opacity:1" />
          <path d="M 18,18 H 6 a 1,1 0 0 0 -1,1 2,2 0 0 0 2,2 h 10 a 2,2 0 0 0 1.987,-1.768 l 0.011,-0.174 A 1,1 0 0 0 18,18 Z" stroke-width="0" fill="currentColor" id="path6" style="fill:var(--color-piece-fill-black);fill-opacity:1;stroke-width:var(--piece-stroke-width);stroke-miterlimit:4;stroke-dasharray:none;stroke:var(--color-piece-stroke-black);stroke-opacity:1" />
        </g>
      </g>
    </symbol>
    <symbol viewBox="0 0 24 24" stroke-width="2" stroke="currentColor" fill="none" stroke-linecap="round" stroke-linejoin="round" id="king-black"
      xmlns="http://www.w3.org/2000/svg"
      xmlns:svg="http://www.w3.org/2000/svg">
      <defs id="defs12" />
      <path stroke="none" d="M0 0h24v24H0z" fill="none" id="path2" />
      <g id="g831" transform="matrix(1.0526315,0,0,1.0526315,-0.63001343,-0.10526228)" style="fill:var(--color-piece-fill-black);fill-opacity:1;stroke-width:var(--piece-stroke-width);stroke-miterlimit:4;stroke-dasharray:none;stroke:var(--color-piece-stroke-black);stroke-opacity:1">
        <path d="m 12,2 a 1,1 0 0 1 0.993,0.883 L 13,3 v 2 h 2 a 1,1 0 0 1 0.117,1.993 L 15,7 H 13 V 8.758 A 4.49,4.49 0 0 1 15.033,8.024 L 15.273,8.006 15.5,8 a 4.5,4.5 0 0 1 4.5,4.5 4.504,4.504 0 0 1 -4.064,4.478 L 15.719,16.994 15.5,17 h -7 A 4.5,4.5 0 1 1 11.001,8.759 L 11,7 H 9 A 1,1 0 0 1 8.883,5.007 L 9,5 h 2 V 3 a 1,1 0 0 1 1,-1 z" stroke-width="0" fill="currentColor" id="path4" style="fill:var(--color-piece-fill-black);fill-opacity:1;stroke-width:var(--piece-stroke-width);stroke-miterlimit:4;stroke-dasharray:none;stroke:var(--color-piece-stroke-black);stroke-opacity:1" />
        <path d="M 18,18 H 6 a 1,1 0 0 0 -1,1 2,2 0 0 0 2,2 h 10 a 2,2 0 0 0 1.987,-1.768 l 0.011,-0.174 A 1,1 0 0 0 18,18 Z" stroke-width="0" fill="currentColor" id="path6" style="fill:var(--color-piece-fill-black);fill-opacity:1;stroke-width:var(--piece-stroke-width);stroke-miterlimit:4;stroke-dasharray:none;stroke:var(--color-piece-stroke-black);stroke-opacity:1" />
      </g>
    </symbol>
    <symbol viewBox="0 0 24 24" stroke-width="2" stroke="currentColor" fill="none" stroke-linecap="round" stroke-linejoin="round" version="1.1" id="knight-black"
      xmlns="http://www.w3.org/2000/svg"
      xmlns:svg="http://www.w3.org/2000/svg">
      <defs id="defs12" />
      <path stroke="none" d="M0 0h24v24H0z" fill="none" id="path2" />
      <g id="g831" transform="matrix(1.0518565,0,0,1.0518565,-0.6221297,-0.08898679)" style="fill:var(--color-piece-fill-black);fill-opacity:1;stroke-width:var(--piece-stroke-width);stroke-miterlimit:4;stroke-dasharray:none;stroke:var(--color-piece-stroke-black);stroke-opacity:1">
        <path d="M 8.959,1.99 8.812,2.018 8.697,2.047 A 1,1 0 0 0 8.051,3.317 L 8.8,5.562 5.985,7.297 A 2,2 0 0 0 5.33,10.048 l 0.089,0.133 A 2,2 0 0 0 7.033,11 L 8.596,10.999 6.982,15.673 A 1,1 0 0 0 7.927,17 h 7.961 a 1,1 0 0 0 1,-0.978 l 0.112,-5 C 17,7.195 15.445,4.144 12.33,3.056 L 9.931,2.226 9.556,2.105 9.298,2.031 9.163,2 9.062,1.987 9.007,1.986 8.959,1.989 Z" stroke-width="0" fill="currentColor" id="path4" style="fill:var(--color-piece-fill-black);fill-opacity:1;stroke-width:var(--piece-stroke-width);stroke-miterlimit:4;stroke-dasharray:none;stroke:var(--color-piece-stroke-black);stroke-opacity:1" />
        <path d="M 18,18 H 6 a 1,1 0 0 0 -1,1 2,2 0 0 0 2,2 h 10 a 2,2 0 0 0 1.987,-1.768 l 0.011,-0.174 A 1,1 0 0 0 18,18 Z" stroke-width="0" fill="currentColor" id="path6" style="fill:var(--color-piece-fill-black);fill-opacity:1;stroke-width:var(--piece-stroke-width);stroke-miterlimit:4;stroke-dasharray:none;stroke:var(--color-piece-stroke-black);stroke-opacity:1" />
      </g>
    </symbol>
    <symbol viewBox="0 0 24 24" stroke-width="2" stroke="currentColor" fill="none" stroke-linecap="round" stroke-linejoin="round" id="queen-black"
      xmlns="http://www.w3.org/2000/svg"
      xmlns:svg="http://www.w3.org/2000/svg">
      <defs id="defs12" />
      <path stroke="none" d="M0 0h24v24H0z" fill="none" id="path2" />
      <g id="g831" transform="matrix(1.0526315,0,0,1.0526315,-0.63440944,-0.10526228)" style="fill:var(--color-piece-fill-black);fill-opacity:1;stroke-width:var(--piece-stroke-width);stroke-miterlimit:4;stroke-dasharray:none;stroke:var(--color-piece-stroke-black);stroke-opacity:1">
        <path d="m 12,2 a 2,2 0 0 1 1.572,3.236 l 0.793,1.983 1.702,-1.702 A 2.003,2.003 0 0 1 18,3 2,2 0 0 1 18.674,6.884 l -1.69,9.295 a 1,1 0 0 1 -0.865,0.814 L 16,17 H 8 A 1,1 0 0 1 7.044,16.295 L 7.016,16.179 5.326,6.884 A 2,2 0 1 1 7.933,5.517 L 9.634,7.219 10.428,5.236 A 2,2 0 0 1 12,2 Z" stroke-width="0" fill="currentColor" id="path4" style="fill:var(--color-piece-fill-black);fill-opacity:1;stroke-width:var(--piece-stroke-width);stroke-miterlimit:4;stroke-dasharray:none;stroke:var(--color-piece-stroke-black);stroke-opacity:1" />
        <path d="M 18,18 H 6 a 1,1 0 0 0 -1,1 2,2 0 0 0 2,2 h 10 a 2,2 0 0 0 1.987,-1.768 l 0.011,-0.174 A 1,1 0 0 0 18,18 Z" stroke-width="0" fill="currentColor" id="path6" style="fill:var(--color-piece-fill-black);fill-opacity:1;stroke-width:var(--piece-stroke-width);stroke-miterlimit:4;stroke-dasharray:none;stroke:var(--color-piece-stroke-black);stroke-opacity:1" />
      </g>
    </symbol>
    <symbol viewBox="0 0 24 24" stroke-width="2" stroke="currentColor" fill="none" stroke-linecap="round" stroke-linejoin="round" id="rook-black"
      xmlns="http://www.w3.org/2000/svg"
      xmlns:svg="http://www.w3.org/2000/svg">
      <defs id="defs12" />
      <path stroke="none" d="M0 0h24v24H0z" fill="none" id="path2" />
      <g id="g1052">
        <g id="g831" transform="matrix(1.1109807,0,0,1.1109807,-1.3311462,-1.3305952)" style="fill:var(--color-piece-fill-black);fill-opacity:1;stroke-width:var(--piece-stroke-width);stroke-miterlimit:4;stroke-dasharray:none;stroke:var(--color-piece-stroke-black);stroke-opacity:1">
          <path d="m 14,3 a 1,1 0 0 1 0.993,0.883 L 15,4 v 2 h 1.652 L 17.014,3.836 A 1,1 0 0 1 18.048,3 l 0.116,0.013 A 1,1 0 0 1 19,4.048 l -0.013,0.116 -0.5,3 A 1,1 0 0 1 17.622,7.993 L 17.5,8 h -1.383 l 0.877,7.89 a 1,1 0 0 1 -0.877,1.103 L 16,17 H 8 A 1,1 0 0 1 7,16.007 L 7.006,15.89 7.883,8 H 6.5 A 1,1 0 0 1 5.54,7.282 l -0.026,-0.118 -0.5,-3 A 1,1 0 0 1 6.961,3.722 L 6.986,3.836 7.347,6 H 9 V 4 A 1,1 0 0 1 10.993,3.883 L 11,4 v 2 h 2 V 4 a 1,1 0 0 1 1,-1 z" stroke-width="0" fill="currentColor" id="path4" style="fill:var(--color-piece-fill-black);fill-opacity:1;stroke-width:var(--piece-stroke-width);stroke-miterlimit:4;stroke-dasharray:none;stroke:var(--color-piece-stroke-black);stroke-opacity:1" />
          <path d="M 18,18 H 6 a 1,1 0 0 0 -1,1 2,2 0 0 0 2,2 h 10 a 2,2 0 0 0 1.987,-1.768 l 0.011,-0.174 A 1,1 0 0 0 18,18 Z" stroke-width="0" fill="currentColor" id="path6" style="fill:var(--color-piece-fill-black);fill-opacity:1;stroke-width:var(--piece-stroke-width);stroke-miterlimit:4;stroke-dasharray:none;stroke:var(--color-piece-stroke-black);stroke-opacity:1" />
        </g>
      </g>
    </symbol>
  </defs>
</svg>